<?xml version="1.0" encoding="UTF-8"?>
<svg version="1.1" xmlns="http://www.w3.org/2000/svg" width="1536" height="1024">
<path d="M0 0 C506.88 0 1013.76 0 1536 0 C1536 337.92 1536 675.84 1536 1024 C1029.12 1024 522.24 1024 0 1024 C0 686.08 0 348.16 0 0 Z " fill="#FDFDFD" transform="translate(0,0)"/>
<path d="M0 0 C0.87574677 -0.0010675 1.75149353 -0.00213501 2.65377808 -0.00323486 C16.08803661 0.02035847 28.49722571 0.87971442 41.25 5.4375 C41.93690918 5.66743652 42.62381836 5.89737305 43.33154297 6.13427734 C59.14137873 11.48244539 73.59181271 19.48434952 81.1875 34.75 C86.60340156 46.16163768 87.59767498 59.7619704 83.50878906 71.92041016 C82.24468094 75.17666809 80.81840156 78.31719769 79.25 81.4375 C78.94497559 82.05206055 78.63995117 82.66662109 78.32568359 83.29980469 C72.47571653 94.81721254 64.63021574 104.60019063 55.25 113.4375 C54.59 113.1075 53.93 112.7775 53.25 112.4375 C53.68570312 111.93863281 54.12140625 111.43976563 54.5703125 110.92578125 C59.81419645 104.60360947 63.14604479 98.01401315 66.25 90.4375 C66.87455078 89.00083984 66.87455078 89.00083984 67.51171875 87.53515625 C71.68539595 76.85932931 72.33328859 62.27182572 68.25 51.4375 C61.57298642 38.17595225 51.15300915 30.66852863 37.34472656 25.76025391 C28.61347091 22.92989057 20.25898015 21.2935289 11.08203125 21.19921875 C9.90553764 21.18466393 9.90553764 21.18466393 8.70527649 21.16981506 C6.15763208 21.14484661 3.61025473 21.13227232 1.0625 21.125 C0.19195984 21.12238159 -0.67858032 21.11976318 -1.57550049 21.11706543 C-16.96258112 21.1121177 -31.63236256 22.40906596 -46.75 25.4375 C-47.5224707 25.58171387 -48.29494141 25.72592773 -49.09082031 25.87451172 C-71.01565961 30.00985521 -93.62770343 38.02862851 -113.4296875 48.2890625 C-116.59734623 49.85689359 -119.85779411 51.11666286 -123.15234375 52.390625 C-127.00276571 53.942374 -130.74603151 55.71403759 -134.5 57.484375 C-136.75 58.4375 -136.75 58.4375 -138.75 58.4375 C-138.75 59.0975 -138.75 59.7575 -138.75 60.4375 C-140.43519502 61.379137 -142.12328697 62.3155901 -143.8125 63.25 C-145.22208984 64.03310547 -145.22208984 64.03310547 -146.66015625 64.83203125 C-149.75 66.4375 -149.75 66.4375 -153.203125 67.84375 C-156.97638968 69.53922576 -160.14607488 71.66220187 -163.4375 74.125 C-164.67317927 75.03172208 -165.91017896 75.93664721 -167.1484375 76.83984375 C-167.7578418 77.28440918 -168.36724609 77.72897461 -168.99511719 78.18701172 C-171.46069896 79.94392739 -174.0102701 81.55983823 -176.5625 83.1875 C-184.08591927 88.14244011 -190.91969165 93.96714307 -197.78979492 99.77954102 C-199.07320815 100.8650634 -200.36225711 101.94396585 -201.6574707 103.01538086 C-213.39135643 112.8185534 -227.35313813 129.97266753 -228.98828125 145.734375 C-229.22443305 153.53981338 -227.52133009 158.46338966 -222.1875 164.1875 C-212.55253175 171.41372618 -199.05891573 172.8151139 -187.4375 172.75 C-186.38280518 172.74508545 -185.32811035 172.7401709 -184.24145508 172.73510742 C-175.16082386 172.60173971 -166.44578373 171.59103869 -157.52587891 169.94677734 C-154.40018337 169.3733208 -151.26894413 168.83738835 -148.13671875 168.30078125 C-136.21489169 166.21704741 -124.52980423 163.8357341 -112.93359375 160.35546875 C-109.75 159.4375 -109.75 159.4375 -107.75 159.4375 C-109.49679353 154.65680191 -111.41714193 150.01177508 -113.76171875 145.4921875 C-114.11878906 144.80253906 -114.47585938 144.11289062 -114.84375 143.40234375 C-115.55819089 142.03725134 -116.28304533 140.67754486 -117.01953125 139.32421875 C-119.47311908 134.63243439 -120.45373938 130.74170456 -120.75 125.4375 C-119.8125 123.375 -119.8125 123.375 -117.75 122.4375 C-113.73700424 122.63814979 -110.40775983 123.24404123 -106.5625 124.375 C-103.40733013 125.25430964 -100.54003045 125.79746266 -97.3125 126.25 C-90.75623998 127.20612125 -84.29586128 128.51334895 -77.8125 129.875 C-76.76715088 130.09414063 -75.72180176 130.31328125 -74.64477539 130.5390625 C-70.21351555 131.47422984 -65.78604938 132.42013501 -61.37109375 133.4296875 C-60.17613281 133.70039063 -58.98117187 133.97109375 -57.75 134.25 C-56.76 134.48332031 -55.77 134.71664062 -54.75 134.95703125 C-46.0125671 136.35638574 -41.4844005 134.79714588 -33.9375 130.4375 C-32.26728224 129.49473788 -30.5942208 128.55699081 -28.91796875 127.625 C-28.18860107 127.20605469 -27.4592334 126.78710938 -26.70776367 126.35546875 C-24.75 125.4375 -24.75 125.4375 -21.75 125.4375 C-21.75 127.0875 -21.75 128.7375 -21.75 130.4375 C-17.79504575 133.05287297 -13.58172627 132.88014274 -9 133.0625 C-7.81083984 133.12050781 -7.81083984 133.12050781 -6.59765625 133.1796875 C-4.64880584 133.273608 -2.69943549 133.35662822 -0.75 133.4375 C-1.47200743 138.26440362 -3.00834859 140.24340734 -6.75 143.4375 C-7.41 143.4375 -8.07 143.4375 -8.75 143.4375 C-8.75 144.0975 -8.75 144.7575 -8.75 145.4375 C-7.99074219 145.55867187 -7.23148438 145.67984375 -6.44921875 145.8046875 C-5.45535156 145.97226562 -4.46148438 146.13984375 -3.4375 146.3125 C-1.95830078 146.55613281 -1.95830078 146.55613281 -0.44921875 146.8046875 C2.25 147.4375 2.25 147.4375 5.25 149.4375 C5.81117415 152.67716182 6.03930903 154.34795884 5.25 157.4375 C3.23066238 160.28256166 0.73109782 162.39827233 -1.9375 164.625 C-3.28564423 165.80543251 -4.63330987 166.98641184 -5.98046875 168.16796875 C-6.62677246 168.7201709 -7.27307617 169.27237305 -7.93896484 169.84130859 C-9.57989074 171.28757087 -11.10127032 172.78463745 -12.61328125 174.36328125 C-14.75 176.4375 -14.75 176.4375 -16.75 176.4375 C-12.86319251 180.42795569 -8.78066403 184.11367019 -4.5625 187.75 C-3.90556152 188.31887939 -3.24862305 188.88775879 -2.57177734 189.47387695 C2.01984493 193.43079808 6.69050461 197.24891196 11.4921875 200.94921875 C14.41240378 203.42166853 14.71510738 205.92097031 15.125 209.625 C15.13570959 218.50324793 8.71792911 223.77709411 2.87353516 229.73339844 C1.31219934 231.37221408 -0.12562328 233.06280957 -1.55078125 234.8203125 C-4.26268934 238.04762764 -4.87243151 238.34703974 -9.046875 238.77734375 C-13.60204177 238.35930629 -14.8183939 237.20600492 -18 234 C-18.94101562 233.08734375 -19.88203125 232.1746875 -20.8515625 231.234375 C-21.56940918 230.53151367 -21.56940918 230.53151367 -22.30175781 229.81445312 C-28.94460112 223.49860075 -36.48617163 218.01540277 -43.75 212.4375 C-43.84925781 213.27925781 -43.94851563 214.12101563 -44.05078125 214.98828125 C-44.83125462 218.83832585 -46.23474545 222.11809857 -47.9375 225.625 C-48.24631104 226.27412354 -48.55512207 226.92324707 -48.87329102 227.59204102 C-51.62674532 233.31931045 -54.61329687 238.91092781 -57.75 244.4375 C-63.484375 244.609375 -63.484375 244.609375 -65.875 243.0625 C-67.59874557 240.6492562 -68.43028359 238.83065275 -69.4453125 236.0859375 C-71.97929809 229.61332059 -75.23220826 223.56371177 -78.5 217.4375 C-79.68598089 215.21029392 -80.86846861 212.98122298 -82.046875 210.75 C-82.56604492 209.77675781 -83.08521484 208.80351562 -83.62011719 207.80078125 C-84.75 205.4375 -84.75 205.4375 -84.75 203.4375 C-85.44746338 203.75912109 -86.14492676 204.08074219 -86.86352539 204.41210938 C-107.31117668 213.79363833 -127.70547641 222.30897816 -149.79101562 226.99755859 C-153.03378297 227.72580719 -156.22949533 228.63305947 -159.4375 229.5 C-193.29621024 238.04815564 -235.07786034 239.17327294 -266.375 221.5625 C-280.52346104 212.13019264 -289.96118298 199.38865627 -294.0625 182.8125 C-297.00552464 164.89719467 -294.43448696 145.43523914 -285.75 129.4375 C-285.30914062 128.56351563 -284.86828125 127.68953125 -284.4140625 126.7890625 C-278.86257441 116.08481198 -272.0292398 106.45248605 -263.8046875 97.64453125 C-262.02139647 95.72901902 -260.34654581 93.77224233 -258.6875 91.75 C-255.3894755 87.88736804 -251.62430468 84.70644457 -247.75 81.4375 C-246.80125 80.60089844 -245.8525 79.76429688 -244.875 78.90234375 C-227.07208006 63.29449515 -206.28105159 51.92192457 -185.0625 41.625 C-183.9688916 41.09084473 -182.8752832 40.55668945 -181.74853516 40.00634766 C-180.73452637 39.52343262 -179.72051758 39.04051758 -178.67578125 38.54296875 C-177.32093628 37.89557739 -177.32093628 37.89557739 -175.9387207 37.23510742 C-175.21644287 36.97189697 -174.49416504 36.70868652 -173.75 36.4375 C-173.09 36.7675 -172.43 37.0975 -171.75 37.4375 C-173.2040625 38.22060547 -173.2040625 38.22060547 -174.6875 39.01953125 C-184.83335769 44.56014069 -194.36306144 50.6981595 -203.75 57.4375 C-204.8225 58.200625 -205.895 58.96375 -207 59.75 C-214.40410083 65.14882352 -221.14149361 71.11468306 -227.75 77.4375 C-228.678125 78.31277344 -229.60625 79.18804687 -230.5625 80.08984375 C-245.60479352 94.6406987 -256.18115043 110.50180537 -262.75 130.4375 C-263.12382813 131.27152344 -263.49765625 132.10554687 -263.8828125 132.96484375 C-264.91196934 135.89933151 -264.89359734 138.35015727 -264.75 141.4375 C-264.49347656 140.81746094 -264.23695313 140.19742188 -263.97265625 139.55859375 C-258.02153223 125.79286244 -250.61965227 114.57042204 -240.12915039 103.89746094 C-238.71657259 102.40211393 -237.40755678 100.85378716 -236.10546875 99.26171875 C-234.24611619 97.03234578 -232.51429962 95.17360545 -230.3125 93.3125 C-227.7730552 91.15609995 -225.24349396 88.99491166 -222.75390625 86.78125 C-207.63596842 73.43121686 -191.22735323 62.45187046 -173.75 52.4375 C-172.96560547 51.98745605 -172.18121094 51.53741211 -171.37304688 51.07373047 C-152.85518065 40.50486433 -133.89432274 31.25902446 -114 23.5625 C-113.32291992 23.30048798 -112.64583984 23.03847595 -111.94824219 22.76852417 C-93.07222085 15.49431363 -74.11271766 9.94171571 -54.27246094 5.94873047 C-52.03412408 5.4950838 -49.80180191 5.02114206 -47.5703125 4.53515625 C-31.7576037 1.17537351 -16.1309586 -0.00421319 0 0 Z " fill="#317773" transform="translate(783.75,268.5625)"/>
<path d="M0 0 C11.42487044 1.79471145 22.75609356 3.91806577 34.08740234 6.23095703 C39.40064374 7.30764552 44.69088348 8.31421511 50.0625 9.0625 C55.23855772 9.80193682 60.21680762 11.00534685 65.27416992 12.32397461 C76.35405829 15.17480985 87.61288892 17.36640934 98.84033203 19.55322266 C99.72833496 19.72644043 100.61633789 19.8996582 101.53125 20.078125 C102.71170898 20.30483887 102.71170898 20.30483887 103.91601562 20.53613281 C106.40774496 21.0907586 108.68801681 21.92107451 111 23 C106.93167258 27.95681272 102.60595566 32.42600826 97.875 36.75 C97.26785156 37.31332031 96.66070313 37.87664062 96.03515625 38.45703125 C93.61141113 40.69067871 91.27290118 42.80870593 88.5703125 44.703125 C88.05210937 45.13109375 87.53390625 45.5590625 87 46 C87 46.99 87 47.98 87 49 C88.74762062 50.73643775 88.74762062 50.73643775 91.125 52.4375 C97.38189112 57.25867389 103.35380922 62.36241107 109.31347656 67.54248047 C110.90438507 68.9173681 112.50869063 70.27468239 114.1171875 71.62890625 C115.02726563 72.41136719 115.93734375 73.19382812 116.875 74 C117.67679688 74.680625 118.47859375 75.36125 119.3046875 76.0625 C121 78 121 78 121 82 C119.27734375 84.515625 119.27734375 84.515625 116.9375 87.25 C116.1228125 88.21035156 115.308125 89.17070312 114.46875 90.16015625 C113.6540625 91.09730469 112.839375 92.03445313 112 93 C111.2884375 93.82371094 110.576875 94.64742188 109.84375 95.49609375 C108.23952669 97.34029309 106.62615787 99.1751476 105 101 C100.00026085 99.47545833 96.80366203 96.48412194 93 93.0625 C91.66978388 91.88874123 90.33904466 90.71557504 89.0078125 89.54296875 C88.00669434 88.65617432 88.00669434 88.65617432 86.98535156 87.75146484 C83.97449186 85.09530308 80.93138462 82.47853743 77.875 79.875 C77.35550781 79.42648682 76.83601562 78.97797363 76.30078125 78.51586914 C73.35380111 76.00699261 70.37616494 73.89213639 67 72 C66.05368762 74.35343775 65.11136579 76.70670001 64.2109375 79.078125 C60.93387304 87.59236724 56.93157435 95.77423037 53 104 C52.01 104 51.02 104 50 104 C45.29296875 94.5859375 40.5859375 85.171875 35.87890625 75.7578125 C35.3710408 74.74216217 34.86317535 73.72651184 34.33992004 72.68008423 C33.31987416 70.63982943 32.30008948 68.59944402 31.28056335 66.55892944 C29.1120204 62.21936731 26.94213182 57.88059332 24.75708008 53.54931641 C19.89596192 43.90301111 15.25999147 34.16105678 10.6875 24.375 C9.63151524 22.11871338 8.57492918 19.86271139 7.51753235 17.60708618 C6.86881678 16.22289327 6.22095585 14.83829935 5.57414246 13.45321655 C4.18900071 10.49446485 2.77557712 7.5639001 1.28051758 4.65869141 C0 2 0 2 0 0 Z " fill="#FCFCFC" transform="translate(671,399)"/>
<path d="M0 0 C3.65908273 3.18506519 6.55308781 7.16476937 8.71875 11.49609375 C9.77846372 27.18333122 7.23382134 38.29078252 -3.28125 50.49609375 C-10.13979736 57.61113963 -17.98699458 63.4073093 -25.91796875 69.25 C-31.53791162 73.40140211 -37.02527335 77.7223153 -42.51782227 82.04003906 C-43.24155029 82.6069043 -43.96527832 83.17376953 -44.7109375 83.7578125 C-45.67362549 84.515177 -45.67362549 84.515177 -46.65576172 85.2878418 C-48.28125 86.49609375 -48.28125 86.49609375 -50.28125 87.49609375 C-33.45125 87.82609375 -16.62125 88.15609375 0.71875 88.49609375 C-0.11739909 95.18528646 -1.17299541 101.84656623 -2.28125 108.49609375 C-31.32125 108.49609375 -60.36125 108.49609375 -90.28125 108.49609375 C-90.28125 94.59818192 -90.28125 94.59818192 -87.28125 89.49609375 C-83.12297556 85.60781977 -78.12822729 82.74499656 -73.30126953 79.77197266 C-69.49148438 77.36564715 -65.96887627 74.5836057 -62.390625 71.8515625 C-60.12629049 70.13624377 -57.85136988 68.45622829 -55.546875 66.796875 C-48.2349235 61.49575509 -41.2918051 55.94192356 -34.65625 49.80859375 C-34.0055957 49.21546387 -33.35494141 48.62233398 -32.68457031 48.01123047 C-26.01354091 41.70580813 -19.13099487 33.59345187 -18.84375 23.99609375 C-18.91784792 20.2911979 -19.19885793 19.60298076 -21.59375 16.49609375 C-26.75554122 12.65476075 -32.08454115 13.03417312 -38.28125 13.49609375 C-45.77890335 15.65643455 -50.92150768 21.07018177 -56.28125 26.49609375 C-59.97371719 25.08367461 -63.47075217 23.46314991 -66.96875 21.62109375 C-67.92136719 21.12867188 -68.87398437 20.63625 -69.85546875 20.12890625 C-72.39512912 18.41944082 -73.23432293 17.32463357 -74.28125 14.49609375 C-56.86647138 -6.87463458 -24.43619209 -16.61868149 0 0 Z " fill="#FD7F1C" transform="translate(708.28125,535.50390625)"/>
<path d="M0 0 C7.92 0 15.84 0 24 0 C22.875 9 22.875 9 22.24389648 12.21289062 C22.10382675 12.93303345 21.96375702 13.65317627 21.81944275 14.3951416 C21.67148758 15.14130737 21.52353241 15.88747314 21.37109375 16.65625 C21.1401577 17.83785706 21.1401577 17.83785706 20.90455627 19.04333496 C20.41807589 21.52939563 19.92785453 24.0147009 19.4375 26.5 C19.10456884 28.19786789 18.77188423 29.89578414 18.43945312 31.59375 C17.62914914 35.72973084 16.81549206 39.8650391 16 44 C23.62036203 37.99629932 30.5820571 31.67859307 37.375 24.75 C38.66857422 23.44289063 38.66857422 23.44289063 39.98828125 22.109375 C42.8592866 19.20740349 45.7238443 16.29916189 48.58447266 13.38696289 C51.36867602 10.57168347 54.2881496 8.02936198 57.3515625 5.52734375 C59.10475043 4.0527013 59.10475043 4.0527013 60.2019043 1.92895508 C62 0 62 0 64.91088867 -0.45410156 C66.0682251 -0.4331543 67.22556152 -0.41220703 68.41796875 -0.390625 C70.29838867 -0.37128906 70.29838867 -0.37128906 72.21679688 -0.3515625 C73.52712891 -0.31804688 74.83746094 -0.28453125 76.1875 -0.25 C77.5227601 -0.22993307 78.85804883 -0.21168262 80.19335938 -0.1953125 C83.46296146 -0.14809803 86.73112192 -0.08225184 90 0 C85.8045897 5.06164293 81.39678674 9.61376622 76.5625 14.0625 C75.51968872 15.03086792 75.51968872 15.03086792 74.45581055 16.01879883 C73.01418768 17.35739041 71.57122949 18.69454529 70.12695312 20.03027344 C67.46938566 22.49139078 64.82435839 24.96571626 62.1796875 27.44067383 C54.81792134 34.327891 47.4162538 41.17154372 40 48 C44.02187624 55.64721643 48.41480717 62.92574491 53.1875 70.125 C54.50667222 72.1327062 55.8256811 74.14051973 57.14453125 76.1484375 C58.11640381 77.62328613 58.11640381 77.62328613 59.10791016 79.12792969 C61.87486874 83.32799431 64.63000885 87.53555228 67.375 91.75 C67.83285889 92.44625488 68.29071777 93.14250977 68.76245117 93.85986328 C70.51733815 96.55555995 71.97798934 98.93396802 73 102 C63.76 102 54.52 102 45 102 C43.989375 100.081875 42.97875 98.16375 41.9375 96.1875 C38.58177122 89.92056148 34.8867752 83.95316202 31 78 C29.93501132 76.3249726 28.87132905 74.64911423 27.80859375 72.97265625 C26.64354237 71.14823745 25.47817496 69.32402044 24.3125 67.5 C23.75353027 66.6143335 23.19456055 65.72866699 22.61865234 64.81616211 C22.08062988 63.97964111 21.54260742 63.14312012 20.98828125 62.28125 C20.50915283 61.52908203 20.03002441 60.77691406 19.53637695 60.00195312 C17.9024217 57.87285205 16.21094209 56.50273808 14 55 C10.44505363 70.62085258 7.22007091 86.30752109 4 102 C-3.92 102 -11.84 102 -20 102 C-18.32421875 88.98046875 -18.32421875 88.98046875 -16.546875 82.71484375 C-14.98051123 77.14772786 -13.97499847 71.5804395 -13.0625 65.875 C-11.93870868 59.1241517 -10.72920652 52.45083537 -9.0625 45.8125 C-6.83898752 36.92067692 -5.30929241 27.91042567 -3.75024414 18.88208008 C-3.55164795 17.73505615 -3.35305176 16.58803223 -3.1484375 15.40625 C-2.97489746 14.38853516 -2.80135742 13.37082031 -2.62255859 12.32226562 C-1.84909344 8.19469157 -0.91098178 4.09941803 0 0 Z " fill="#53B744" transform="translate(745,542)"/>
<path d="M0 0 C6.93 0 13.86 0 21 0 C19.87611838 11.23881624 19.87611838 11.23881624 18.984375 15.3125 C18.78730957 16.23087646 18.59024414 17.14925293 18.38720703 18.09545898 C18.17692871 19.05395752 17.96665039 20.01245605 17.75 21 C17.30311376 23.09471696 16.85786357 25.18978348 16.4140625 27.28515625 C16.18364258 28.37199707 15.95322266 29.45883789 15.71582031 30.57861328 C14.47224493 36.52249642 13.29016345 42.47781293 12.125 48.4375 C11.7842041 50.14389648 11.7842041 50.14389648 11.43652344 51.88476562 C11.23317383 52.93212891 11.02982422 53.97949219 10.8203125 55.05859375 C10.63742676 55.98986084 10.45454102 56.92112793 10.26611328 57.88061523 C10.1782959 58.58001221 10.09047852 59.27940918 10 60 C10.495 60.495 10.495 60.495 11 61 C11.59167969 60.40832031 12.18335938 59.81664062 12.79296875 59.20703125 C14.42903659 57.57096341 16.06578643 55.93557737 17.703125 54.30078125 C19.29100544 52.71020034 20.8685113 51.10921918 22.4375 49.5 C25.71562144 46.30183274 29.15173999 43.29709042 32.59765625 40.28125 C35.11538937 38.12301013 35.11538937 38.12301013 36.51171875 35.23828125 C40.80858933 31.37312137 46.21374982 32.48735747 51.75 32.6875 C53.51150391 32.72133789 53.51150391 32.72133789 55.30859375 32.75585938 C58.20701637 32.8147704 61.10286427 32.89698369 64 33 C61.20908111 36.4427771 58.54111009 39.5954665 55.125 42.4375 C52.46911987 44.70046902 49.94206894 47.00775156 47.5 49.5 C44.40589653 52.65074609 41.14197182 55.54574857 37.79296875 58.421875 C36.34479809 59.69651758 34.97133859 61.05573144 33.625 62.4375 C32 64 32 64 30 64 C30.31638428 64.59723877 30.63276855 65.19447754 30.95874023 65.80981445 C36.55528773 76.39659149 42.10771204 86.99603617 47.25 97.8125 C47.63212646 98.61147705 48.01425293 99.4104541 48.40795898 100.23364258 C51 105.74770881 51 105.74770881 51 108 C43.08 108 35.16 108 27 108 C25.68 104.37 24.36 100.74 23 97 C21.06205712 92.79042872 19.05772439 88.63317315 17.00390625 84.48046875 C16.42189453 83.28357422 16.42189453 83.28357422 15.828125 82.0625 C15.4765332 81.35222656 15.12494141 80.64195312 14.76269531 79.91015625 C14 78 14 78 14 75 C13.44570313 75.5053125 12.89140625 76.010625 12.3203125 76.53125 C11.59585938 77.1809375 10.87140625 77.830625 10.125 78.5 C9.40570312 79.1496875 8.68640625 79.799375 7.9453125 80.46875 C6 82 6 82 4 82 C3.96261719 82.62003906 3.92523437 83.24007812 3.88671875 83.87890625 C3.2753434 92.11449186 1.70303959 99.92907323 0 108 C-6.93 108 -13.86 108 -21 108 C-20.37467533 98.60367402 -18.65303617 89.57307004 -16.75 80.375 C-16.43049353 78.80928113 -16.11157157 77.24344289 -15.79321289 75.67749023 C-15.15839822 72.55743079 -14.52087662 69.437944 -13.88134766 66.31884766 C-12.90819332 61.5632493 -11.96526102 56.80187547 -11.02563477 52.03955078 C-7.5887943 34.64277507 -3.84673866 17.31032396 0 0 Z " fill="#0645A5" transform="translate(966,408)"/>
<path d="M0 0 C0.66 0 1.32 0 2 0 C2.21914063 0.89460938 2.43828125 1.78921875 2.6640625 2.7109375 C7.18395109 19.94530944 16.37457258 31.98145869 31.66796875 41.1015625 C61.08331648 57.86106895 99.61147632 58.60469528 132 52 C132.97743164 51.80132324 133.95486328 51.60264648 134.96191406 51.39794922 C162.76796582 45.56680264 189.12674316 35.14523837 213.83129883 21.10595703 C216 20 216 20 218 20 C218 19.01 218 18.02 218 17 C218.99 17 219.98 17 221 17 C222.20570907 19.0536142 223.38906641 21.11555155 224.5625 23.1875 C224.90474609 23.76564453 225.24699219 24.34378906 225.59960938 24.93945312 C227.08516203 27.59544121 228.03431724 29.46734126 227.83618164 32.54272461 C226.79309654 35.60802432 225.88062473 36.15300711 223.0546875 37.6484375 C222.23291016 38.09276123 221.41113281 38.53708496 220.56445312 38.99487305 C219.67693359 39.45031494 218.78941406 39.90575684 217.875 40.375 C216.96427734 40.85686768 216.05355469 41.33873535 215.11523438 41.83520508 C212.42187166 43.24789559 209.71569295 44.63079943 207 46 C205.96407715 46.52327881 205.96407715 46.52327881 204.90722656 47.05712891 C183.79762447 57.57882551 162.00639783 64.45188956 138.98510742 69.34960938 C136.90749009 69.80227745 134.83748341 70.29073914 132.7746582 70.80664062 C122.19005208 73.27045661 111.92060535 73.45944208 101.09399414 73.39111328 C98.07066611 73.37504341 95.0486781 73.39103548 92.02539062 73.41015625 C77.37988693 73.42694141 63.68994029 72.06688195 49.75 67.25 C49.00113525 66.99468506 48.25227051 66.73937012 47.48071289 66.47631836 C29.89256825 60.2233014 15.03401854 48.3376405 6 32 C4.46456156 28.72408009 3.13899874 25.4331905 2 22 C1.45666016 20.36611328 1.45666016 20.36611328 0.90234375 18.69921875 C-0.07816578 14.67955415 -0.1981015 11.19273465 -0.125 7.0625 C-0.11597656 6.37865234 -0.10695313 5.69480469 -0.09765625 4.99023438 C-0.07438958 3.32666713 -0.03853167 1.66328369 0 0 Z " fill="#FDB816" transform="translate(478,455)"/>
<path d="M0 0 C4.27623022 3.33606613 6.45439883 6.37565147 7.15234375 11.7265625 C7.59944083 19.7825895 5.98136217 26.96630128 4.15234375 34.7890625 C1.56145974 45.64403328 1.56145974 45.64403328 1.15234375 56.7265625 C2.63734375 57.2215625 2.63734375 57.2215625 4.15234375 57.7265625 C4.06541234 59.51914808 3.95723871 61.31071394 3.83984375 63.1015625 C3.78183594 64.09929687 3.72382812 65.09703125 3.6640625 66.125 C3.41076172 67.41277344 3.41076172 67.41277344 3.15234375 68.7265625 C-0.59028913 71.22165108 -2.75634317 71.05768909 -7.22265625 71.1015625 C-8.52976562 71.12992188 -9.836875 71.15828125 -11.18359375 71.1875 C-15.40245152 70.65676949 -17.08012032 69.94288804 -19.84765625 66.7265625 C-20.16015625 63.4765625 -20.16015625 63.4765625 -19.84765625 60.7265625 C-20.49992188 61.19707031 -21.1521875 61.66757812 -21.82421875 62.15234375 C-32.12344428 69.48940264 -40.03726924 72.90778 -52.84765625 71.7265625 C-58.82680322 70.01123345 -62.28571354 66.69169477 -65.84765625 61.7265625 C-68.33823889 56.74539721 -67.68123475 48.76354914 -66.234375 43.4921875 C-62.16425585 35.67468992 -54.02997489 30.35436955 -45.84765625 27.7265625 C-39.17572706 25.87881949 -32.68504969 25.33203911 -25.78515625 25.1015625 C-24.82416016 25.06289063 -23.86316406 25.02421875 -22.87304688 24.984375 C-20.53142811 24.89117624 -18.18979588 24.80537065 -15.84765625 24.7265625 C-15.79695165 23.11490753 -15.76062693 21.50279534 -15.73046875 19.890625 C-15.69783936 18.54411865 -15.69783936 18.54411865 -15.66455078 17.17041016 C-15.65042026 14.52278907 -15.65042026 14.52278907 -17.72265625 12.1015625 C-25.37946413 8.73256703 -33.33227271 10.81069129 -40.84765625 13.7265625 C-43.58321291 14.96555651 -46.19928462 16.30428885 -48.84765625 17.7265625 C-49.88056466 15.79547287 -50.89864297 13.8564445 -51.91015625 11.9140625 C-52.47863281 10.83511719 -53.04710937 9.75617187 -53.6328125 8.64453125 C-54.84765625 5.7265625 -54.84765625 5.7265625 -53.84765625 2.7265625 C-50.84765625 0.7265625 -50.84765625 0.7265625 -46.84765625 0.7265625 C-46.84765625 0.0665625 -46.84765625 -0.5934375 -46.84765625 -1.2734375 C-32.37884337 -6.72052 -13.38051133 -9.22208603 0 0 Z " fill="#54B644" transform="translate(887.84765625,574.2734375)"/>
<path d="M0 0 C3.15516987 0.87930964 6.02246955 1.42246266 9.25 1.875 C15.80626002 2.83112125 22.26663872 4.13834895 28.75 5.5 C29.79534912 5.71914063 30.84069824 5.93828125 31.91772461 6.1640625 C36.34898445 7.09922984 40.77645062 8.04513501 45.19140625 9.0546875 C46.38636719 9.32539063 47.58132813 9.59609375 48.8125 9.875 C49.8025 10.10832031 50.7925 10.34164063 51.8125 10.58203125 C60.5499329 11.98138574 65.0780995 10.42214588 72.625 6.0625 C74.29521776 5.11973788 75.9682792 4.18199081 77.64453125 3.25 C78.37389893 2.83105469 79.1032666 2.41210938 79.85473633 1.98046875 C81.8125 1.0625 81.8125 1.0625 84.8125 1.0625 C84.8125 2.7125 84.8125 4.3625 84.8125 6.0625 C88.76745425 8.67787297 92.98077373 8.50514274 97.5625 8.6875 C98.75166016 8.74550781 98.75166016 8.74550781 99.96484375 8.8046875 C101.91369416 8.898608 103.86306451 8.98162822 105.8125 9.0625 C105.09049257 13.88940362 103.55415141 15.86840734 99.8125 19.0625 C99.1525 19.0625 98.4925 19.0625 97.8125 19.0625 C97.8125 19.7225 97.8125 20.3825 97.8125 21.0625 C98.57175781 21.18367188 99.33101562 21.30484375 100.11328125 21.4296875 C101.10714844 21.59726562 102.10101562 21.76484375 103.125 21.9375 C104.11113281 22.09992188 105.09726562 22.26234375 106.11328125 22.4296875 C108.8125 23.0625 108.8125 23.0625 111.8125 25.0625 C112.37367415 28.30216182 112.60180903 29.97295884 111.8125 33.0625 C109.79316238 35.90756166 107.29359782 38.02327233 104.625 40.25 C103.27685577 41.43043251 101.92919013 42.61141184 100.58203125 43.79296875 C99.93572754 44.3451709 99.28942383 44.89737305 98.62353516 45.46630859 C96.98260926 46.91257087 95.46122968 48.40963745 93.94921875 49.98828125 C91.8125 52.0625 91.8125 52.0625 89.8125 52.0625 C93.69930749 56.05295569 97.78183597 59.73867019 102 63.375 C102.65693848 63.94387939 103.31387695 64.51275879 103.99072266 65.09887695 C108.58234493 69.05579808 113.25300461 72.87391196 118.0546875 76.57421875 C120.97490378 79.04666853 121.27760738 81.54597031 121.6875 85.25 C121.69820959 94.12824793 115.28042911 99.40209411 109.43603516 105.35839844 C107.87469934 106.99721408 106.43687672 108.68780957 105.01171875 110.4453125 C102.29981066 113.67262764 101.69006849 113.97203974 97.515625 114.40234375 C92.96045823 113.98430629 91.7441061 112.83100492 88.5625 109.625 C87.62148438 108.71234375 86.68046875 107.7996875 85.7109375 106.859375 C85.23237305 106.39080078 84.75380859 105.92222656 84.26074219 105.43945312 C77.61789888 99.12360075 70.07632837 93.64040277 62.8125 88.0625 C62.71324219 88.90425781 62.61398437 89.74601562 62.51171875 90.61328125 C61.73124538 94.46332585 60.32775455 97.74309857 58.625 101.25 C58.16178345 102.2236853 58.16178345 102.2236853 57.68920898 103.21704102 C54.93575468 108.94431045 51.94920313 114.53592781 48.8125 120.0625 C43.078125 120.234375 43.078125 120.234375 40.6875 118.6875 C38.96375443 116.2742562 38.13221641 114.45565275 37.1171875 111.7109375 C34.58320191 105.23832059 31.33029174 99.18871177 28.0625 93.0625 C26.87651911 90.83529392 25.69403139 88.60622298 24.515625 86.375 C23.99645508 85.40175781 23.47728516 84.42851562 22.94238281 83.42578125 C21.8125 81.0625 21.8125 81.0625 21.8125 79.0625 C20.8225 78.5675 20.8225 78.5675 19.8125 78.0625 C20.4725 78.0625 21.1325 78.0625 21.8125 78.0625 C20.39774558 74.62666784 19.03814489 71.43857482 17.125 68.25 C15.8125 66.0625 15.8125 66.0625 15.8125 64.0625 C15.1525 64.0625 14.4925 64.0625 13.8125 64.0625 C13.420625 63.11375 13.02875 62.165 12.625 61.1875 C10.96041696 57.29565796 9.06240138 53.54153564 7.14453125 49.76953125 C5.27680638 45.97383232 3.59854729 42.09980201 1.92578125 38.21484375 C1.00251499 35.91209673 1.00251499 35.91209673 -1.1875 35.0625 C-1.9765625 33.33984375 -1.9765625 33.33984375 -2.8125 31 C-4.09965005 27.59859589 -5.51739615 24.34583113 -7.19140625 21.12109375 C-7.54960449 20.43088135 -7.90780273 19.74066895 -8.27685547 19.02954102 C-8.99364664 17.66400442 -9.72013723 16.30350298 -10.45751953 14.94897461 C-12.91034084 10.25700258 -13.89124456 6.3666118 -14.1875 1.0625 C-11.73796775 -4.32647094 -4.48207379 -1.318257 0 0 Z M-6.1875 6.0625 C-4.89815065 10.15414121 -3.37774945 13.96091077 -1.5 17.81640625 C-0.97108154 18.90783936 -0.44216309 19.99927246 0.1027832 21.1237793 C0.66698975 22.27918213 1.23119629 23.43458496 1.8125 24.625 C2.69734492 26.44689171 3.58092113 28.26939514 4.46443176 30.0919342 C5.05889065 31.31799866 5.65377048 32.5438591 6.24906921 33.76951599 C9.27966616 40.01241872 12.254971 46.28122435 15.21289062 52.55883789 C18.603327 59.71634125 22.15915703 66.79021523 25.71176147 73.86807251 C27.58252669 77.59762183 29.44715922 81.33023557 31.3125 85.0625 C32.06116945 86.55991007 32.80986733 88.05730592 33.55859375 89.5546875 C36.9765625 96.390625 40.39453125 103.2265625 43.8125 110.0625 C44.8025 110.0625 45.7925 110.0625 46.8125 110.0625 C54.47513378 94.34129006 54.47513378 94.34129006 60.8125 78.0625 C65.7038158 81.61110166 70.39502812 85.33818308 75 89.25 C75.5480127 89.71494873 76.09602539 90.17989746 76.66064453 90.65893555 C79.58841437 93.15003396 82.50006146 95.65836193 85.3984375 98.18359375 C85.98085205 98.68673096 86.5632666 99.18986816 87.16333008 99.70825195 C88.28027999 100.67353501 89.39235661 101.64449445 90.4987793 102.62182617 C93.16361197 104.91740188 95.25430825 106.6358583 98.8125 107.0625 C104.80515568 100.61165334 110.54361759 94.12838535 115.8125 87.0625 C114.21336617 82.88091403 111.12403758 80.29474323 107.875 77.375 C107.00536621 76.58379761 107.00536621 76.58379761 106.11816406 75.77661133 C98.01571724 68.46159476 89.46702178 61.70831796 80.8125 55.0625 C81.33021767 51.0206691 83.22371817 49.46693249 86.25 46.875 C87.59578125 45.70324219 87.59578125 45.70324219 88.96875 44.5078125 C89.9071875 43.70085937 90.845625 42.89390625 91.8125 42.0625 C93.63026235 40.46429883 95.44299817 38.86035751 97.25 37.25 C98.05308594 36.54230469 98.85617187 35.83460938 99.68359375 35.10546875 C101.66000169 33.20884241 103.24661106 31.30308063 104.8125 29.0625 C101.54353612 27.67752521 98.42654743 26.6576197 94.94970703 25.94921875 C94.01168243 25.75561768 93.07365784 25.5620166 92.10720825 25.36254883 C90.60394485 25.05933716 90.60394485 25.05933716 89.0703125 24.75 C88.0285788 24.53561279 86.98684509 24.32122559 85.9135437 24.1003418 C82.58907692 23.4166769 79.26340421 22.73913454 75.9375 22.0625 C72.61888318 21.38519194 69.30056646 20.70650771 65.98287964 20.0246582 C63.9210559 19.60111598 61.85868008 19.18024981 59.79568481 18.76245117 C54.72261033 17.72239759 49.77964778 16.52157728 44.8125 15.0625 C42.12456199 14.60757551 39.44802684 14.19265892 36.75 13.8125 C26.32354263 12.26613534 16.01521917 10.15996486 5.69311523 8.04394531 C4.44216064 7.78838867 3.19120605 7.53283203 1.90234375 7.26953125 C0.21419556 6.92112183 0.21419556 6.92112183 -1.50805664 6.56567383 C-4.06072688 6.00097857 -4.06072688 6.00097857 -6.1875 6.0625 Z " fill="#68686A" transform="translate(677.1875,392.9375)"/>
<path d="M0 0 C5.105166 -0.01753478 10.2100748 -0.04605615 15.31512451 -0.08459473 C21.21686168 -0.12815301 27.11815103 -0.14704772 33.02004433 -0.14598656 C35.18159315 -0.14941563 37.34314718 -0.16125903 39.50459862 -0.18206215 C42.45670754 -0.20877837 45.40717814 -0.20440408 48.35934448 -0.19195557 C49.64365813 -0.2142155 49.64365813 -0.2142155 50.9539175 -0.23692513 C55.15869754 -0.18517166 57.82673612 0.15942159 61.1786499 2.81987 C63.6010437 5.40740967 63.6010437 5.40740967 63.6010437 7.40740967 C58.29021987 12.06983143 54.69218241 13.13739183 47.74118042 13.02264404 C46.43001692 13.03086134 46.43001692 13.03086134 45.09236526 13.03924465 C42.15462648 13.05096909 39.21836995 13.02628424 36.2807312 13.00115967 C34.14693174 13.00049967 32.01313099 13.00174109 29.8793335 13.00471497 C23.99264401 13.00522283 18.10657769 12.97146833 12.220047 12.93065262 C8.44961499 12.9072456 4.67927207 12.89359397 0.90878296 12.88320923 C-48.77883113 12.74379771 -98.45152498 11.75390209 -148.12690866 10.70814371 C-157.30086347 10.51506116 -166.47486788 10.32451108 -175.6489563 10.13787842 C-176.47356558 10.12110141 -177.29817487 10.1043244 -178.14777231 10.08703899 C-220.57311306 9.22778712 -263.00039176 8.91423369 -305.43327856 8.70863211 C-311.3437195 8.67983496 -317.25415145 8.64933151 -323.1645813 8.61834717 C-324.39451057 8.61207998 -325.62443985 8.6058128 -326.89163971 8.5993557 C-345.73967275 8.49826573 -364.56599477 8.18426864 -383.3989563 7.40740967 C-383.3989563 6.74740967 -383.3989563 6.08740967 -383.3989563 5.40740967 C-361.78449422 4.56261474 -340.18490096 4.17475696 -318.55614209 3.96784377 C-314.09685158 3.92426943 -309.63760865 3.87626436 -305.17835999 3.82862854 C-297.56938358 3.74775629 -289.96039027 3.66874568 -282.35137939 3.59118652 C-262.32677483 3.3867776 -242.30228677 3.17171774 -222.27786255 2.95037842 C-221.28161165 2.93939967 -220.28536075 2.92842093 -219.25892043 2.91710949 C-187.23802995 2.56356009 -155.22222312 2.08550403 -123.20504951 1.48316383 C-82.1388354 0.71063094 -41.07337474 0.13851199 0 0 Z " fill="#FE8723" transform="translate(937.3989562988281,678.5925903320313)"/>
<path d="M0 0 C0.68320312 0.00773438 1.36640625 0.01546875 2.0703125 0.0234375 C1.12958675 7.11998031 -0.39747936 14.02857426 -1.9296875 21.0234375 C4.6703125 21.0234375 11.2703125 21.0234375 18.0703125 21.0234375 C17.5753125 23.4984375 17.5753125 23.4984375 17.0703125 26.0234375 C16.71223034 27.96021767 16.35809083 29.89773076 16.0078125 31.8359375 C15.6984375 33.5478125 15.3890625 35.2596875 15.0703125 37.0234375 C8.1403125 37.0234375 1.2103125 37.0234375 -5.9296875 37.0234375 C-6.0121875 38.6321875 -6.0946875 40.2409375 -6.1796875 41.8984375 C-6.62802068 47.46304341 -7.66402755 52.72780479 -8.9296875 58.1484375 C-11.4791221 67.49720281 -11.4791221 67.49720281 -11.9296875 77.0234375 C-10.7513349 78.84241561 -10.7513349 78.84241561 -8.9296875 80.0234375 C-3.85451827 80.35623548 -0.03826094 79.87486641 5.0703125 79.0234375 C5.0703125 83.6434375 5.0703125 88.2634375 5.0703125 93.0234375 C-3.66624356 97.04225329 -13.93153423 99.05124884 -23.41015625 96.3046875 C-28.46912544 93.95079565 -31.60289374 90.82604246 -34.01220703 85.73681641 C-37.17139318 76.39376296 -34.38290142 65.88549085 -32.0546875 56.6484375 C-31.78527344 55.52566406 -31.51585937 54.40289063 -31.23828125 53.24609375 C-29.9206187 47.80189773 -28.52361054 42.39325591 -26.9296875 37.0234375 C-31.2196875 37.0234375 -35.5096875 37.0234375 -39.9296875 37.0234375 C-38.84235298 31.89743189 -37.70331258 26.96425022 -35.9296875 22.0234375 C-31.9696875 21.6934375 -28.0096875 21.3634375 -23.9296875 21.0234375 C-23.58679688 19.75886719 -23.24390625 18.49429688 -22.890625 17.19140625 C-18.89033682 4.09594865 -18.89033682 4.09594865 -13.5234375 1.16015625 C-8.94701824 0.22275945 -4.65289876 0.03722319 0 0 Z " fill="#53B644" transform="translate(1008.9296875,548.9765625)"/>
<path d="M0 0 C2.57341688 1.57980358 4.45618901 3.19185641 6.41796875 5.484375 C6.66796875 7.859375 6.66796875 7.859375 5.41796875 10.484375 C1.60570275 14.05837437 -2.56266093 16.91582178 -7.58203125 18.484375 C-8.34515625 17.845 -9.10828125 17.205625 -9.89453125 16.546875 C-13.5596999 13.73407115 -16.70632751 13.00542687 -21.328125 13.08203125 C-26.58893262 14.02113556 -30.86419434 17.38294344 -34.19140625 21.453125 C-38.1062074 27.44046794 -39.80006157 33.34972277 -40.33203125 40.484375 C-40.47898437 42.2478125 -40.47898437 42.2478125 -40.62890625 44.046875 C-40.5642325 48.7896166 -39.67602092 52.00601058 -36.84765625 55.828125 C-32.39568722 59.08266788 -26.83390367 58.12438813 -21.58203125 57.484375 C-18.63324517 56.49373101 -16.19551662 55.1458483 -13.58203125 53.484375 C-12.25483936 52.80556434 -10.9229059 52.1357408 -9.58203125 51.484375 C-8.40682479 53.08229602 -7.24211878 54.68794408 -6.08203125 56.296875 C-5.43234375 57.19019531 -4.78265625 58.08351563 -4.11328125 59.00390625 C-2.58203125 61.484375 -2.58203125 61.484375 -2.58203125 64.484375 C-10.64773094 72.02519185 -20.238681 75.65855467 -31.14453125 75.921875 C-41.79138748 75.55548521 -48.6901684 73.64358185 -56.44140625 66.05078125 C-63.06532367 58.10933282 -63.56597418 48.38767228 -62.80517578 38.44482422 C-61.39647749 26.06862366 -54.97382086 14.87380504 -46.03515625 6.33984375 C-32.39158029 -3.97973998 -15.75607435 -7.20023708 0 0 Z " fill="#0847A6" transform="translate(938.58203125,442.515625)"/>
<path d="M0 0 C6.93 0 13.86 0 21 0 C19.87671637 8.98626901 19.87671637 8.98626901 18.984375 13.30078125 C18.78787354 14.26363037 18.59137207 15.22647949 18.38891602 16.21850586 C18.17807373 17.23952393 17.96723145 18.26054199 17.75 19.3125 C15.90940555 28.33629341 14.19217483 37.37342262 12.5625 46.4375 C10.69907162 56.76499757 8.48959811 66.97488769 5.96704102 77.16186523 C4.55734531 82.98337768 3.63622778 88.60652295 3.19287109 94.58056641 C2.83079538 99.1225542 1.87023558 103.53279071 1 108 C-5.93 108 -12.86 108 -20 108 C-19.43893562 98.81894652 -18.26355207 90.02138214 -16.5 81 C-16.24000694 79.64509435 -15.98041781 78.29011114 -15.72119141 76.93505859 C-14.82781832 72.2873323 -13.9149392 67.64352183 -13 63 C-12.82239136 62.09689087 -12.64478271 61.19378174 -12.46179199 60.26330566 C-11.10786711 53.38220582 -9.74434621 46.50304664 -8.375 39.625 C-8.18736084 38.68108398 -7.99972168 37.73716797 -7.80639648 36.76464844 C-5.35838084 24.47212041 -2.76001284 12.22648223 0 0 Z " fill="#0745A5" transform="translate(816,408)"/>
<path d="M0 0 C-1.35253464 6.45054982 -3.03060233 12.71105679 -5 19 C-6.00160156 18.95359375 -7.00320313 18.9071875 -8.03515625 18.859375 C-16.49662089 18.57984162 -22.13686582 18.51988116 -28.63671875 24.5078125 C-34.39100025 30.49895305 -36.17787179 37.54088112 -36.69140625 45.6640625 C-37 48 -37 48 -37.92578125 51.15234375 C-39.20011237 55.71676612 -39.92706668 60.25712177 -40.625 64.9375 C-41.305625 69.4234375 -41.305625 69.4234375 -42 74 C-49.59 74 -57.18 74 -65 74 C-62.88810351 59.21672457 -60.37275227 44.56458574 -56.66308594 30.09130859 C-55.47744143 25.3912776 -54.66708882 20.82563521 -54.20385742 16 C-53.95172204 13.52635565 -53.50963873 11.12022865 -53 8.6875 C-52.835 7.88699219 -52.67 7.08648438 -52.5 6.26171875 C-52.03670364 4.16602661 -51.52055226 2.08220903 -51 0 C-44.4 0 -37.8 0 -31 0 C-31 3.96 -31 7.92 -31 12 C-30.030625 10.783125 -29.06125 9.56625 -28.0625 8.3125 C-20.47971735 -0.22571326 -11.2524361 -3.75081203 0 0 Z " fill="#54B645" transform="translate(969,570)"/>
<path d="M0 0 C-0.73412109 0.29132813 -1.46824219 0.58265625 -2.22460938 0.8828125 C-22.01104479 8.74021999 -22.01104479 8.74021999 -41.15625 18.02294922 C-43.08489777 19.04498952 -45.02541153 20.04136083 -46.96875 21.03515625 C-64.03853798 29.829909 -80.64177926 39.45232017 -96 51 C-97.04414062 51.75925781 -98.08828125 52.51851563 -99.1640625 53.30078125 C-104.98534134 57.56726283 -110.45767613 62.04444026 -115.74609375 66.95703125 C-118 69 -118 69 -120.5 70.90234375 C-127.20275879 76.5263773 -134.8996467 86.15477889 -136.3359375 95.08984375 C-136.55259165 99.56458527 -135.97484474 102.65329967 -133 106 C-127.90010763 109.2050279 -122.901036 111.12258504 -116.84912109 111.12939453 C-116.04082855 111.13254669 -115.23253601 111.13569885 -114.39974976 111.13894653 C-113.09972519 111.13591019 -113.09972519 111.13591019 -111.7734375 111.1328125 C-110.87058014 111.13376923 -109.96772278 111.13472595 -109.0375061 111.13571167 C-107.12607758 111.13639175 -105.21464673 111.13454942 -103.30322266 111.13037109 C-100.40652126 111.12505782 -97.50997759 111.13030249 -94.61328125 111.13671875 C-92.74999966 111.13605721 -90.88671817 111.13477448 -89.0234375 111.1328125 C-87.74163101 111.13584885 -87.74163101 111.13584885 -86.43392944 111.13894653 C-80.57120423 111.11660595 -74.82243421 110.67923396 -69 110 C-71.37377084 112.37377084 -72.79323806 112.63519121 -76.0234375 113.4375 C-77.04566406 113.69273437 -78.06789063 113.94796875 -79.12109375 114.2109375 C-80.19488281 114.47132813 -81.26867187 114.73171875 -82.375 115 C-83.41011719 115.26039063 -84.44523438 115.52078125 -85.51171875 115.7890625 C-97.48100107 118.74039239 -108.78000494 120.34593715 -121.125 120.3125 C-122.32253906 120.32861328 -123.52007813 120.34472656 -124.75390625 120.36132812 C-134.71733917 120.36678455 -143.10242043 119.44391961 -150.625 112.5 C-154.71051878 108.04307042 -154.55040632 104.33834533 -154.421875 98.53515625 C-152.98379531 86.48458104 -144.22936263 78.12643127 -136 70 C-134.64261719 68.62714844 -134.64261719 68.62714844 -133.2578125 67.2265625 C-120.2926037 54.70209734 -104.66558753 44.81189299 -89 36 C-88.17242188 35.53352051 -87.34484375 35.06704102 -86.4921875 34.58642578 C-63.06168447 21.44896974 -39.19266683 11.02946502 -13.75 2.375 C-12.7199585 2.01986328 -11.68991699 1.66472656 -10.62866211 1.29882812 C-9.19598999 0.82219727 -9.19598999 0.82219727 -7.734375 0.3359375 C-6.89100586 0.05282715 -6.04763672 -0.2302832 -5.17871094 -0.52197266 C-3 -1 -3 -1 0 0 Z " fill="#FDB120" transform="translate(728,308)"/>
<path d="M0 0 C5.30662332 0.0023471 10.61324344 0.00254707 15.91986713 0.00148559 C16.69512112 0.00133236 17.47037511 0.00117913 18.26912164 0.00102125 C19.84728071 0.00070131 21.42543978 0.00037709 23.00359885 0.00004866 C37.55909393 -0.00275535 52.11458257 0.00039963 66.67007659 0.00584903 C78.9874837 0.01031867 91.30488137 0.00952969 103.62228832 0.00493027 C118.16103546 -0.00049661 132.69977706 -0.00248759 147.23852507 0.00054253 C148.80654078 0.00086086 150.37455649 0.00117524 151.94257221 0.00148559 C152.71275747 0.00163987 153.48294274 0.00179414 154.27646695 0.0019531 C159.54102845 0.00279385 164.8055862 0.00139204 170.07014713 -0.00099396 C209.71139713 -0.01745843 249.32898856 0.34809515 288.96286449 1.13530136 C289.29286449 1.79530136 289.62286449 2.45530136 289.96286449 3.13530136 C283.67454478 4.01642143 277.44299823 4.43823865 271.10004101 4.6897142 C270.05291907 4.73184158 269.00579713 4.77396896 267.92694423 4.81737293 C255.87452366 5.26395467 243.82714553 5.27577116 231.76804027 5.26469589 C229.23701382 5.26605574 226.70598756 5.26783892 224.17496166 5.27000595 C218.05461805 5.27406127 211.93429062 5.27350699 205.81394683 5.27059331 C200.78110494 5.26830154 195.74826643 5.26804279 190.71542415 5.26911712 C189.98883156 5.26927036 189.26223897 5.26942359 188.51362842 5.26958147 C187.03485475 5.26990138 185.55608109 5.2702256 184.07730742 5.27055406 C170.23550571 5.27339801 156.39371063 5.27014756 142.55191 5.26475369 C130.93677545 5.26036431 119.32165116 5.26104688 107.70651684 5.26567245 C47.19249873 5.28906709 -13.31975948 5.27455754 -73.83175841 4.72138906 C-77.26156665 4.69029152 -80.69138499 4.66061851 -84.12120762 4.63115478 C-89.4023317 4.5850855 -94.68337582 4.53365564 -99.96440211 4.47750116 C-101.86731826 4.45772822 -103.77024911 4.43931159 -105.67319288 4.42240454 C-114.51724955 4.34191387 -123.24908163 4.24593192 -132.03713551 3.13530136 C-128.66587937 0.88779727 -127.48113614 0.86978385 -123.52894821 0.81856132 C-121.81085404 0.78939939 -121.81085404 0.78939939 -120.0580509 0.75964833 C-118.17295024 0.74294689 -118.17295024 0.74294689 -116.24976673 0.72590805 C-114.93024592 0.70685936 -113.61072511 0.68781068 -112.25121882 0.66818476 C-108.62332445 0.61661196 -104.99539565 0.57797273 -101.36731551 0.54216275 C-98.29466654 0.51048766 -95.22211771 0.47190938 -92.14954499 0.43363838 C-61.43385265 0.05433129 -30.71766268 -0.01393937 0 0 Z " fill="#D6C8BA" transform="translate(690.0371355079114,658.8646986410022)"/>
<path d="M0 0 C6.6 0 13.2 0 20 0 C19.38521085 9.55870807 17.55531824 18.72122768 15.5625 28.0625 C15.24616207 29.56563269 14.93040355 31.06888744 14.61523438 32.57226562 C14.01136337 35.45067516 13.40500598 38.32854243 12.796875 41.20605469 C11.83239926 45.79795207 10.90833783 50.39674519 10 55 C9.64367435 56.78394314 9.28688977 58.56779468 8.9296875 60.3515625 C8.77226074 61.13869629 8.61483398 61.92583008 8.45263672 62.73681641 C7.63509115 66.82454427 6.81754557 70.91227214 6 75 C-0.93 75 -7.86 75 -15 75 C-14.4078945 66.68265926 -13.07191024 58.76924086 -11.3125 50.625 C-10.77181558 48.07428653 -10.23146122 45.52350307 -9.69140625 42.97265625 C-9.48346939 41.99736214 -9.48346939 41.99736214 -9.27133179 41.00236511 C-8.26880813 36.29696718 -7.29687885 31.5859383 -6.33984375 26.87109375 C-6.07060538 25.54930648 -5.80131893 24.227529 -5.53198242 22.90576172 C-5.02081958 20.39351526 -4.51177768 17.88083609 -4.00512695 15.36767578 C-3.65454224 13.65620361 -3.65454224 13.65620361 -3.296875 11.91015625 C-3.09416992 10.91121338 -2.89146484 9.91227051 -2.68261719 8.88305664 C-1.96997236 5.87317723 -0.97812252 2.93436757 0 0 Z " fill="#0745A3" transform="translate(850,441)"/>
<path d="M0 0 C3.06846235 1.27288919 3.80824936 2.24626201 6 5 C7.10552725 8.10003517 7.44849766 10.73401706 7 14 C5.03000564 17.90687957 2.02346337 20.3714553 -2 22 C-6.90397759 22.68575947 -10.79003819 22.74079295 -15.0625 20.125 C-17.54547739 17.40173448 -17.95520643 16.46585316 -18.3125 12.75 C-17.8876698 7.65203755 -15.94903613 4.74169186 -12.1640625 1.359375 C-8.32393325 -1.05283616 -4.3686831 -0.70862104 0 0 Z " fill="#0E4CA9" transform="translate(870,408)"/>
<path d="M0 0 C3.83635361 1.36327566 6.7558142 3.11452443 10 5.5625 C14.20018992 8.68426277 18.43911552 11.72224911 22.75 14.6875 C24.37228516 15.80898438 24.37228516 15.80898438 26.02734375 16.953125 C27.80674688 18.17836447 29.58949238 19.39880272 31.37890625 20.609375 C32.95372038 21.69106552 34.48436516 22.83683838 36 24 C36 24.66 36 25.32 36 26 C34.16042327 27.58900315 32.32073878 29.05046757 30.375 30.5 C29.79468018 30.93997314 29.21436035 31.37994629 28.61645508 31.83325195 C23.78797627 35.4709344 18.85543558 38.95669451 13.91308594 42.43701172 C9.34340952 45.68347781 5.08672284 49.16711088 1 53 C0.34 52.67 -0.32 52.34 -1 52 C0.01707031 50.92685547 0.01707031 50.92685547 1.0546875 49.83203125 C6.14753869 44.40499622 11.09865275 38.8745828 15.75 33.0625 C16.1919873 32.53180908 16.63397461 32.00111816 17.08935547 31.4543457 C18.89500881 29.14525606 19.96860517 27.50553734 20.15234375 24.546875 C18.42821841 20.73626578 15.73124363 18.13786903 12.8125 15.1875 C8.15402447 10.34156706 3.86376977 5.5196711 0 0 Z " fill="#FD8F2C" transform="translate(999,659)"/>
<path d="M0 0 C6.0408168 2.76495097 11.44974573 6.86895819 16.92919922 10.59472656 C18.30521973 11.52851271 19.68444696 12.45759152 21.06689453 13.38183594 C23.03348829 14.69920314 24.98671326 16.03437122 26.9375 17.375 C27.5464209 17.77912109 28.1553418 18.18324219 28.78271484 18.59960938 C30.46484375 19.7734375 30.46484375 19.7734375 33 22 C33 26 33 26 31.5222168 27.61230469 C30.83812744 28.12696289 30.15403809 28.64162109 29.44921875 29.171875 C28.69286133 29.75018066 27.93650391 30.32848633 27.15722656 30.92431641 C26.3422168 31.52679199 25.52720703 32.12926758 24.6875 32.75 C23.86604492 33.37181152 23.04458984 33.99362305 22.19824219 34.63427734 C19.80890419 36.43685106 17.40713357 38.22128891 15 40 C14.09145264 40.67627441 14.09145264 40.67627441 13.16455078 41.36621094 C8.20449701 45.05480576 3.18606358 48.63606687 -2 52 C-0.51260196 48.58363262 1.45010477 46.26265692 4 43.5625 C7.68622338 39.52206297 11.22458104 35.40640358 14.625 31.125 C15.29982422 30.3043103 15.29982422 30.3043103 15.98828125 29.46704102 C18.3828582 26.58888332 18.3828582 26.58888332 18.79956055 23.03613281 C17.8684144 20.66490872 16.75743758 19.35904536 14.98046875 17.5390625 C14.37009766 16.90226563 13.75972656 16.26546875 13.13085938 15.609375 C12.48955078 14.95453125 11.84824219 14.2996875 11.1875 13.625 C6.97651779 9.29764469 3.1686243 5.15599822 0 0 Z " fill="#FD8A28" transform="translate(1030,660)"/>
<path d="M0 0 C0.69738281 0.00451172 1.39476562 0.00902344 2.11328125 0.01367188 C3.82555803 0.0253998 5.53779033 0.04333347 7.25 0.0625 C7.2222852 6.17361359 6.31741995 10.18112709 1.98046875 14.62109375 C-2.74480584 18.55704482 -7.73073431 19.65181293 -13.7265625 19.40625 C-15.75 19.0625 -15.75 19.0625 -18.3125 17.5 C-20.41816843 13.92951875 -20.58086168 12.14756994 -19.75 8.0625 C-13.83797021 1.02104942 -8.88117386 -0.10912595 0 0 Z " fill="#F8FBF7" transform="translate(861.75,611.9375)"/>
<path d="M0 0 C0 0.33 0 0.66 0 1 C-31.35 1 -62.7 1 -95 1 C-95.33 1.99 -95.66 2.98 -96 4 C-105.0845389 4.02326015 -114.16906741 4.04098439 -123.25362968 4.05181217 C-127.47280816 4.05701125 -131.69196613 4.06405432 -135.91113281 4.07543945 C-139.9895256 4.08637475 -144.06789876 4.0922992 -148.14630508 4.09487724 C-149.6954695 4.09671243 -151.24463294 4.10029576 -152.79378891 4.10573006 C-160.92506989 4.1330967 -168.91536699 4.00622693 -177 3 C-173.76553334 0.84368889 -172.83864508 0.73766216 -169.09936523 0.68115234 C-167.56489998 0.65135536 -167.56489998 0.65135536 -165.99943542 0.62095642 C-164.86395767 0.60940018 -163.72847992 0.59784393 -162.55859375 0.5859375 C-161.34025345 0.56652603 -160.12191315 0.54711456 -158.86665344 0.52711487 C-155.44713471 0.47619639 -152.0277686 0.43500456 -148.608078 0.39890671 C-146.4383374 0.37500922 -144.2686781 0.3473114 -142.09899902 0.31838989 C-94.737448 -0.30723547 -47.36437395 -0.08936292 0 0 Z " fill="#E1D5CA" transform="translate(735,659)"/>
<path d="M0 0 C-0.9590625 0.433125 -0.9590625 0.433125 -1.9375 0.875 C-4.15206079 1.82823451 -4.15206079 1.82823451 -5 4 C-7.10620117 4.32836914 -7.10620117 4.32836914 -9.85546875 4.47265625 C-15.84128373 4.91479581 -21.48205839 6.05160847 -27.3125 7.4375 C-28.26189453 7.65470703 -29.21128906 7.87191406 -30.18945312 8.09570312 C-34.8904562 9.18812045 -39.42334643 10.46019132 -44 12 C-45.6662553 12.0370279 -47.33401319 12.04759962 -49 12 C-49.33 12.33 -49.66 12.66 -50 13 C-61.33449882 14.48649165 -72.77380011 15.20290833 -84.1875 15.75 C-85.72567383 15.83507812 -85.72567383 15.83507812 -87.29492188 15.921875 C-96.8801177 16.32151834 -104.89830533 14.81056818 -113.625 10.875 C-114.24761719 10.59785156 -114.87023437 10.32070313 -115.51171875 10.03515625 C-117.01189484 9.36584692 -118.50660024 8.68429557 -120 8 C-120 7.34 -120 6.68 -120 6 C-120.99 5.67 -121.98 5.34 -123 5 C-122.67 4.34 -122.34 3.68 -122 3 C-121.12601563 3.59748047 -121.12601563 3.59748047 -120.234375 4.20703125 C-110.89001332 10.2456046 -102.03978429 12.35612207 -91 12 C-90.34 12.33 -89.68 12.66 -89 13 C-89.495 11.515 -89.495 11.515 -90 10 C-89.08935791 10.01047363 -88.17871582 10.02094727 -87.24047852 10.03173828 C-63.52756949 10.48701932 -63.52756949 10.48701932 -40 8 C-39.20883789 7.86045898 -38.41767578 7.72091797 -37.60253906 7.57714844 C-27.87176799 5.83117009 -18.36949115 3.74455491 -8.9453125 0.734375 C-5.854132 -0.03637027 -3.17276595 -0.1325932 0 0 Z " fill="#3B548A" transform="translate(659,460)"/>
<path d="M0 0 C30.36 0 60.72 0 92 0 C92.495 0.99 92.495 0.99 93 2 C85.14194593 3.28448961 77.28099665 3.12656075 69.34375 3.09765625 C67.83060757 3.0957883 66.31746454 3.09436618 64.80432129 3.09336853 C60.84568577 3.08957306 56.88708766 3.07976854 52.9284668 3.06866455 C48.87939968 3.05838618 44.83032644 3.05385721 40.78125 3.04882812 C32.85414961 3.03814326 24.92707947 3.02110302 17 3 C17 2.34 17 1.68 17 1 C11.39 1 5.78 1 0 1 C0 0.67 0 0.34 0 0 Z " fill="#F2A258" transform="translate(887,660)"/>
<path d="M0 0 C0.33872513 1.41538717 0.67074624 2.83237963 1 4.25 C1.185625 5.03890625 1.37125 5.8278125 1.5625 6.640625 C2 9 2 9 2 13 C-3.51653822 16.42315021 -10.21735898 14.73729444 -16.3046875 13.55078125 C-18.1875 13.0625 -18.1875 13.0625 -21 12 C-21.33 11.34 -21.66 10.68 -22 10 C-18.90116855 8.32326863 -15.79511545 6.6603866 -12.6875 5 C-11.80642578 4.52304687 -10.92535156 4.04609375 -10.01757812 3.5546875 C-9.17001953 3.10351562 -8.32246094 2.65234375 -7.44921875 2.1875 C-6.66893311 1.76855469 -5.88864746 1.34960938 -5.0847168 0.91796875 C-3 0 -3 0 0 0 Z " fill="#09A3BE" transform="translate(762,394)"/>
<path d="M0 0 C-0.33 1.65 -0.66 3.3 -1 5 C-0.34 5 0.32 5 1 5 C1 5.66 1 6.32 1 7 C1.66 7 2.32 7 3 7 C3 7.66 3 8.32 3 9 C6.83724172 9.90413673 10.37502274 10.10576898 14.3125 10.0625 C15.38113281 10.05347656 16.44976563 10.04445313 17.55078125 10.03515625 C18.76314453 10.01775391 18.76314453 10.01775391 20 10 C21.6665436 13.33308719 21.41627795 16.67547926 20.3125 20.1875 C18.46552692 22.73808187 16.90900097 23.77175515 14 25 C10.1875 24.6875 10.1875 24.6875 7 24 C7 23.34 7 22.68 7 22 C8.47726336 20.81176643 9.95879382 19.62657744 11.4921875 18.51171875 C13.43261351 16.56626573 14.11229662 14.57261612 15 12 C13.22882812 12.05220703 13.22882812 12.05220703 11.421875 12.10546875 C9.86459758 12.13361232 8.30730475 12.16091187 6.75 12.1875 C5.97269531 12.21263672 5.19539062 12.23777344 4.39453125 12.26367188 C0.91774727 12.30824603 -1.38073194 12.32511573 -4.5 10.6875 C-6.61706333 8.30580376 -6.7235019 6.11060361 -7 3 C-2.25 0 -2.25 0 0 0 Z " fill="#C2D2C5" transform="translate(768,390)"/>
<path d="M0 0 C0.99 0.66 1.98 1.32 3 2 C4.92744369 2.3626117 4.92744369 2.3626117 7.01171875 2.4140625 C8.14770508 2.47207031 8.14770508 2.47207031 9.30664062 2.53125 C10.09232422 2.5621875 10.87800781 2.593125 11.6875 2.625 C12.88342773 2.68300781 12.88342773 2.68300781 14.10351562 2.7421875 C16.06863475 2.83632494 18.0342854 2.91924632 20 3 C19.27799257 7.82690362 17.74165141 9.80590734 14 13 C13.34 13 12.68 13 12 13 C11.67 13.66 11.34 14.32 11 15 C6.38 13.68 1.76 12.36 -3 11 C-2.67 10.01 -2.34 9.02 -2 8 C-1.01 8 -0.02 8 1 8 C0.67 5.36 0.34 2.72 0 0 Z " fill="#639998" transform="translate(763,399)"/>
<path d="M0 0 C0 0.33 0 0.66 0 1 C-4.95 1.33 -9.9 1.66 -15 2 C2.16 2.33 19.32 2.66 37 3 C37 3.33 37 3.66 37 4 C28.70383843 4.02366024 20.40769201 4.04117782 12.11150455 4.05181217 C8.2550693 4.05692808 4.39865786 4.06380636 0.54223633 4.07543945 C-20.99293962 4.13869315 -42.47864835 3.79537435 -64 3 C-64 2.34 -64 1.68 -64 1 C-42.65518879 0.11514344 -21.36108702 -0.12815864 0 0 Z " fill="#FDA356" transform="translate(618,683)"/>
<path d="M0 0 C-0.33 0.99 -0.66 1.98 -1 3 C2.3 3 5.6 3 9 3 C9 3.33 9 3.66 9 4 C0.86261064 3.89179397 -7.27469807 3.7790285 -15.41194534 3.66066074 C-19.1915963 3.60581899 -22.97125531 3.55246744 -26.75097656 3.50268555 C-30.40798448 3.45446231 -34.06491337 3.40211051 -37.72182465 3.34705925 C-39.10742946 3.32689454 -40.49305569 3.30814388 -41.87870026 3.29092598 C-50.29513754 3.18523946 -58.62257077 2.83159473 -67 2 C-67 1.67 -67 1.34 -67 1 C-44.66254706 -0.11214014 -22.3586814 -0.10939513 0 0 Z " fill="#FE8221" transform="translate(658,683)"/>
<path d="M0 0 C7.45474921 6.68356826 8.24327645 14.95230609 9.26171875 24.4375 C9.65920635 32.55172955 7.12891424 40.25383013 5 48 C4.66172523 49.33208824 4.325271 50.66467694 4 52 C5.98 51.505 5.98 51.505 8 51 C2.83618547 58.1120669 -2.64921797 64.90324925 -9 71 C-9.66 70.67 -10.32 70.34 -11 70 C-10.34644531 69.25169922 -10.34644531 69.25169922 -9.6796875 68.48828125 C-4.43580355 62.16610947 -1.10395521 55.57651315 2 48 C2.41636719 47.04222656 2.83273437 46.08445312 3.26171875 45.09765625 C7.51300188 34.2233215 7.79334648 20.12992868 4 9 C2.79819853 6.55052677 1.44938245 4.31901192 0 2 C0 1.34 0 0.68 0 0 Z " fill="#65328C" transform="translate(848,311)"/>
<path d="M0 0 C-0.73412109 0.29132813 -1.46824219 0.58265625 -2.22460938 0.8828125 C-16.10061272 6.40888521 -29.78107704 12.02014529 -43 19 C-48.74772727 22 -48.74772727 22 -51 22 C-51 21.34 -51 20.68 -51 20 C-49.68 19.34 -48.36 18.68 -47 18 C-47.99 17.34 -48.98 16.68 -50 16 C-38.02021354 11.15940908 -25.99007998 6.51986816 -13.75 2.375 C-12.72132813 2.02050781 -11.69265625 1.66601562 -10.6328125 1.30078125 C-9.67632813 0.98238281 -8.71984375 0.66398437 -7.734375 0.3359375 C-6.46932129 -0.08872803 -6.46932129 -0.08872803 -5.17871094 -0.52197266 C-3 -1 -3 -1 0 0 Z " fill="#FDEB60" transform="translate(728,308)"/>
<path d="M0 0 C0.495 0.99 0.495 0.99 1 2 C0.03320312 2.31453125 -0.93359375 2.6290625 -1.9296875 2.953125 C-10.64521071 5.80125519 -10.64521071 5.80125519 -19.1875 9.125 C-33.85003257 15.14228723 -33.85003257 15.14228723 -40 13 C-39.01 13 -38.02 13 -37 13 C-37 12.34 -37 11.68 -37 11 C-38.32 10.67 -39.64 10.34 -41 10 C-39.87980469 9.72285156 -38.75960937 9.44570313 -37.60546875 9.16015625 C-36.13279698 8.79433333 -34.66014158 8.42844447 -33.1875 8.0625 C-32.44951172 7.88009766 -31.71152344 7.69769531 -30.95117188 7.50976562 C-27.92939016 6.7577385 -24.95543282 5.98514427 -22 5 C-20.30170677 4.58803169 -18.59929597 4.19290487 -16.89453125 3.80859375 C-15.91162109 3.58623047 -14.92871094 3.36386719 -13.91601562 3.13476562 C-12.37977539 2.78961914 -12.37977539 2.78961914 -10.8125 2.4375 C-9.77673828 2.20353516 -8.74097656 1.96957031 -7.67382812 1.72851562 C-5.11618881 1.15098417 -2.55823917 0.57486741 0 0 Z " fill="#15947C" transform="translate(685,448)"/>
<path d="M0 0 C2.38597103 2.2024348 2.35166378 4.35663341 2.625 7.5 C3.285 7.5 3.945 7.5 4.625 7.5 C6.1328125 9.546875 6.1328125 9.546875 7.75 12.25 C8.55824219 13.57257813 8.55824219 13.57257813 9.3828125 14.921875 C10.625 17.5 10.625 17.5 10.625 21.5 C8.06613496 22.82002556 5.50332932 24.13113782 2.9375 25.4375 C1.8556543 25.99727539 1.8556543 25.99727539 0.75195312 26.56835938 C-2.94005742 28.43965239 -6.21193096 29.98269556 -10.375 30.5 C-9.07307157 27.89614315 -7.97042175 27.72828827 -5.3125 26.625 C-0.90416843 24.74580737 3.35472282 22.67395929 7.625 20.5 C5.72986456 15.52296956 3.30442262 10.87323385 0.8671875 6.14453125 C-0.375 3.5 -0.375 3.5 -0.375 1.5 C-2.00223299 1.95034123 -3.62673664 2.41055354 -5.25 2.875 C-6.15492188 3.13023437 -7.05984375 3.38546875 -7.9921875 3.6484375 C-10.52069726 4.3604315 -10.52069726 4.3604315 -12.375 6.5 C-16.49699405 7.95033124 -19.1922493 8.79904812 -23.375 7.5 C-21.18977184 6.53619618 -19.00204614 5.57890561 -16.8125 4.625 C-16.20341797 4.35558594 -15.59433594 4.08617187 -14.96679688 3.80859375 C-4.16664191 -0.87718777 -4.16664191 -0.87718777 0 0 Z " fill="#3C4C81" transform="translate(688.375,449.5)"/>
<path d="M0 0 C1.44115425 0.00022659 1.44115425 0.00022659 2.91142273 0.00045776 C3.94588028 0.01078033 4.98033783 0.02110291 6.04614258 0.03173828 C7.63789055 0.03598312 7.63789055 0.03598312 9.26179504 0.04031372 C12.6548688 0.05151894 16.0476797 0.07662431 19.44067383 0.10205078 C21.73949814 0.11208013 24.03832659 0.12120606 26.3371582 0.12939453 C31.97591994 0.15145938 37.6145281 0.18494034 43.25317383 0.22705078 C39.28911022 3.53792423 36.13538465 3.63693775 31.12036133 3.55517578 C29.93254562 3.55236603 29.93254562 3.55236603 28.72073364 3.54949951 C27.04465527 3.5427844 25.36859243 3.52888056 23.69262695 3.50830078 C21.15796929 3.47741386 18.62393782 3.46735058 16.08911133 3.46142578 C8.08407266 3.42232769 0.20608823 3.23539576 -7.74682617 2.22705078 C-4.52508368 0.07922245 -3.70345307 -0.0194407 0 0 Z " fill="#F9E4CE" transform="translate(565.746826171875,659.77294921875)"/>
<path d="M0 0 C-3.45667915 1.89886062 -6.91564713 3.7935154 -10.375 5.6875 C-11.34050781 6.21794922 -12.30601562 6.74839844 -13.30078125 7.29492188 C-30.98221862 16.96631211 -30.98221862 16.96631211 -38.8125 19.3125 C-40.39998047 19.80169922 -40.39998047 19.80169922 -42.01953125 20.30078125 C-44.81042475 20.9555256 -47.14900764 21.14228612 -50 21 C-47.45849987 18.45849987 -45.38775619 18.10156374 -41.9375 17.125 C-32.18333888 14.18597329 -24.31205286 10.14674262 -15.84643555 4.52880859 C-5.86975759 -1.95658586 -5.86975759 -1.95658586 0 0 Z " fill="#FAD167" transform="translate(672,515)"/>
<path d="M0 0 C0.99 0 1.98 0 3 0 C4.6665436 3.33308719 4.41627795 6.67547926 3.3125 10.1875 C1.46552692 12.73808187 -0.09099903 13.77175515 -3 15 C-6.8125 14.6875 -6.8125 14.6875 -10 14 C-10 13.34 -10 12.68 -10 12 C-8.5727568 10.77190702 -7.13961383 9.54951959 -5.66796875 8.375 C-3.27552687 6.40277625 -1.15937284 4.22288381 1 2 C0.67 1.34 0.34 0.68 0 0 Z " fill="#D1D7DB" transform="translate(785,400)"/>
<path d="M0 0 C0.66 0.33 1.32 0.66 2 1 C0.99582031 1.54527344 -0.00835938 2.09054687 -1.04296875 2.65234375 C-2.42538116 3.41242429 -3.806821 4.17427527 -5.1875 4.9375 C-6.26994995 5.53461792 -6.26994995 5.53461792 -7.37426758 6.14379883 C-13.36141124 9.50716289 -18.80484869 13.34316272 -24.23046875 17.54296875 C-27 19 -27 19 -29.86328125 18.23828125 C-30.56839844 17.82964844 -31.27351562 17.42101562 -32 17 C-29.65578095 14.37830197 -27.28248508 12.96013665 -24.140625 11.40625 C-23.18929687 10.93316406 -22.23796875 10.46007812 -21.2578125 9.97265625 C-20.26523437 9.48667969 -19.27265625 9.00070312 -18.25 8.5 C-16.78433594 7.77103516 -16.78433594 7.77103516 -15.2890625 7.02734375 C-4.44610316 1.66431669 -4.44610316 1.66431669 0 0 Z " fill="#6ABA4C" transform="translate(610,305)"/>
<path d="M0 0 C7.95746716 6.00869969 14.30703728 13.93536899 15.79296875 24.04296875 C16.07063743 28.00891581 16.20366122 31.96238454 16.25 35.9375 C16.2595874 36.68402832 16.2691748 37.43055664 16.27905273 38.19970703 C16.25522658 41.99716348 16.15534887 43.76697669 14 47 C14 43.04 14 39.08 14 35 C13.01 35.99 12.02 36.98 11 38 C11.875 32.125 11.875 32.125 13 31 C13.95316723 22.58035611 11.08658331 14.94238275 5.88671875 8.30078125 C4.48177417 6.75109993 3.04648408 5.22805972 1.57421875 3.7421875 C0 2 0 2 0 0 Z " fill="#D4CBDC" transform="translate(839,303)"/>
<path d="M0 0 C10.56 0 21.12 0 32 0 C32.495 0.99 32.495 0.99 33 2 C26.14016191 3.05728087 19.43216776 3.11639843 12.5 3.0625 C11.39140625 3.05798828 10.2828125 3.05347656 9.140625 3.04882812 C6.42702601 3.03713158 3.71354239 3.02074086 1 3 C0.67 2.01 0.34 1.02 0 0 Z " fill="#EDD5BD" transform="translate(947,660)"/>
<path d="M0 0 C0.99 0.825 1.98 1.65 3 2.5 C15.13260759 11.4879037 31.67208361 19 47 19 C47 19.66 47 20.32 47 21 C39.67185906 21.43851907 33.85370241 20.43840572 27 17.875 C25.68962769 17.39848999 25.68962769 17.39848999 24.3527832 16.91235352 C15.02216594 13.41936214 7.21968273 8.90578348 0 2 C0 1.34 0 0.68 0 0 Z " fill="#2A4E97" transform="translate(506,479)"/>
<path d="M0 0 C-0.9590625 0.433125 -0.9590625 0.433125 -1.9375 0.875 C-4.15206079 1.82823451 -4.15206079 1.82823451 -5 4 C-7.10620117 4.32836914 -7.10620117 4.32836914 -9.85546875 4.47265625 C-15.84128373 4.91479581 -21.48205839 6.05160847 -27.3125 7.4375 C-28.7365918 7.76331055 -28.7365918 7.76331055 -30.18945312 8.09570312 C-34.0274889 8.98758443 -37.754107 9.9165671 -41.48828125 11.18359375 C-44.40177213 12.13059156 -46.09450702 11.85455676 -49 11 C-45.91210541 9.27806172 -43.10186618 8.49384732 -39.6328125 7.8515625 C-38.06623901 7.55318481 -38.06623901 7.55318481 -36.46801758 7.2487793 C-35.36482178 7.04293213 -34.26162598 6.83708496 -33.125 6.625 C-24.84337571 5.03774307 -16.79567881 3.30591366 -8.76953125 0.69921875 C-5.75195128 -0.06262443 -3.09986841 -0.12399474 0 0 Z " fill="#385391" transform="translate(659,460)"/>
<path d="M0 0 C-0.33 0.66 -0.66 1.32 -1 2 C-3.91606641 2.68281684 -6.72958112 3.19901831 -9.6875 3.625 C-11.04427856 3.82283081 -11.04427856 3.82283081 -12.4284668 4.0246582 C-25.5348342 5.70909372 -38.81565274 5.25929881 -52 5 C-52 4.67 -52 4.34 -52 4 C-51.32646484 3.98018066 -50.65292969 3.96036133 -49.95898438 3.93994141 C-29.22807218 3.67628455 -29.22807218 3.67628455 -8.81640625 0.44140625 C-5.897006 -0.2680394 -2.98725695 -0.05744725 0 0 Z " fill="#38308C" transform="translate(622,497)"/>
<path d="M0 0 C0.33872513 1.41538717 0.67074624 2.83237963 1 4.25 C1.185625 5.03890625 1.37125 5.8278125 1.5625 6.640625 C2 9 2 9 2 13 C-1.4019487 15.09350689 -4.05272412 15.17942163 -8 15 C-8 14.67 -8 14.34 -8 14 C-6.35 14 -4.7 14 -3 14 C-3.33 11.03 -3.66 8.06 -4 5 C-5.65 4.67 -7.3 4.34 -9 4 C-3.7826087 0 -3.7826087 0 0 0 Z " fill="#2AA4B3" transform="translate(762,394)"/>
<path d="M0 0 C0 0.66 0 1.32 0 2 C-2.6226232 3.33819498 -5.24786599 4.6707151 -7.875 6 C-8.99455078 6.57234375 -8.99455078 6.57234375 -10.13671875 7.15625 C-10.85214844 7.5171875 -11.56757812 7.878125 -12.3046875 8.25 C-12.96452637 8.58515625 -13.62436523 8.9203125 -14.30419922 9.265625 C-16 10 -16 10 -18 10 C-18 9.34 -18 8.68 -18 8 C-16.68 7.34 -15.36 6.68 -14 6 C-14.99 5.34 -15.98 4.68 -17 4 C-11.15439723 1.36536213 -6.45512034 -0.56131481 0 0 Z " fill="#FDDE39" transform="translate(695,320)"/>
<path d="M0 0 C0 0.66 0 1.32 0 2 C-3.45484098 3.83997197 -6.9144248 5.67083882 -10.375 7.5 C-11.35984375 8.02464844 -12.3446875 8.54929687 -13.359375 9.08984375 C-14.30039062 9.58613281 -15.24140625 10.08242188 -16.2109375 10.59375 C-17.51490479 11.28500977 -17.51490479 11.28500977 -18.84521484 11.99023438 C-21 13 -21 13 -23 13 C-23.33 12.01 -23.66 11.02 -24 10 C-20.37777789 8.32724698 -16.7517834 6.66283749 -13.125 5 C-11.57619141 4.28457031 -11.57619141 4.28457031 -9.99609375 3.5546875 C-9.00996094 3.10351562 -8.02382813 2.65234375 -7.0078125 2.1875 C-6.09660645 1.76855469 -5.18540039 1.34960938 -4.24658203 0.91796875 C-2 0 -2 0 0 0 Z " fill="#F0EFE9" transform="translate(696,473)"/>
<path d="M0 0 C0.66 0 1.32 0 2 0 C2.50636607 1.74816858 3.00484619 3.49862263 3.5 5.25 C3.7784375 6.22453125 4.056875 7.1990625 4.34375 8.203125 C5 11 5 11 5 15 C4.34 15 3.68 15 3 15 C3 17.31 3 19.62 3 22 C0.39949766 16.97236214 -0.13055811 12.91944107 -0.0625 7.3125 C-0.05798828 6.61060547 -0.05347656 5.90871094 -0.04882812 5.18554688 C-0.03706927 3.45699462 -0.01913454 1.72848635 0 0 Z " fill="#FEBA4A" transform="translate(478,455)"/>
<path d="M0 0 C0.99 0.66 1.98 1.32 3 2 C4.65549531 2.38499891 6.3222433 2.72793135 8 3 C8 3.33 8 3.66 8 4 C6.02 4 4.04 4 2 4 C2 5.32 2 6.64 2 8 C3.32 8 4.64 8 6 8 C6 8.99 6 9.98 6 11 C7.32 11 8.64 11 10 11 C10 11.66 10 12.32 10 13 C8.3954444 12.85851011 6.79136233 12.71164314 5.1875 12.5625 C4.29417969 12.48128906 3.40085937 12.40007812 2.48046875 12.31640625 C0 12 0 12 -3 11 C-2.67 10.01 -2.34 9.02 -2 8 C-1.01 8 -0.02 8 1 8 C0.67 5.36 0.34 2.72 0 0 Z " fill="#75ACA3" transform="translate(763,399)"/>
<path d="M0 0 C4.3958194 -0.02907584 8.79161399 -0.0468244 13.1875 -0.0625 C14.43337891 -0.07087891 15.67925781 -0.07925781 16.96289062 -0.08789062 C18.16494141 -0.09111328 19.36699219 -0.09433594 20.60546875 -0.09765625 C22.26292114 -0.10551147 22.26292114 -0.10551147 23.95385742 -0.11352539 C26.75799379 -0.00901923 29.27417329 0.35902041 32 1 C28.5233662 3.14336161 25.78770805 3.21277626 21.75 3.125 C20.67234375 3.10695313 19.5946875 3.08890625 18.484375 3.0703125 C17.66453125 3.04710937 16.8446875 3.02390625 16 3 C16 2.67 16 2.34 16 2 C10.72 1.67 5.44 1.34 0 1 C0 0.67 0 0.34 0 0 Z " fill="#F1A762" transform="translate(920,660)"/>
<path d="M0 0 C0 0.66 0 1.32 0 2 C-0.69867187 2.19335938 -1.39734375 2.38671875 -2.1171875 2.5859375 C-3.02726563 2.84632813 -3.93734375 3.10671875 -4.875 3.375 C-5.77992188 3.63023437 -6.68484375 3.88546875 -7.6171875 4.1484375 C-10.14569726 4.8604315 -10.14569726 4.8604315 -12 7 C-16.12199405 8.45033124 -18.8172493 9.29904812 -23 8 C-20.81477184 7.03619618 -18.62704614 6.07890561 -16.4375 5.125 C-15.82841797 4.85558594 -15.21933594 4.58617187 -14.59179688 4.30859375 C-4.66101372 0 -4.66101372 0 0 0 Z " fill="#405B97" transform="translate(688,449)"/>
<path d="M0 0 C1.125 1.75 1.125 1.75 2 4 C0.71635146 7.50085966 -1.47614768 9.68659453 -4.125 12.25 C-4.84945312 12.95640625 -5.57390625 13.6628125 -6.3203125 14.390625 C-6.87460937 14.92171875 -7.42890625 15.4528125 -8 16 C-8.66 15.67 -9.32 15.34 -10 15 C-9.52949219 14.41992188 -9.05898438 13.83984375 -8.57421875 13.2421875 C-5.17861407 8.98186362 -2.18021001 5.00165825 0 0 Z " fill="#72439C" transform="translate(847,366)"/>
<path d="M0 0 C0.66 0.33 1.32 0.66 2 1 C-0.60238792 2.48237286 -3.20678228 3.96100131 -5.8125 5.4375 C-6.55048828 5.85837891 -7.28847656 6.27925781 -8.04882812 6.71289062 C-8.76103516 7.11572266 -9.47324219 7.51855469 -10.20703125 7.93359375 C-10.8616333 8.30540771 -11.51623535 8.67722168 -12.19067383 9.06030273 C-14 10 -14 10 -17 11 C-17.66 10.34 -18.32 9.68 -19 9 C-15.88112823 7.46635461 -12.75402378 5.95031107 -9.625 4.4375 C-8.73554687 3.99986328 -7.84609375 3.56222656 -6.9296875 3.11132812 C-6.07890625 2.70205078 -5.228125 2.29277344 -4.3515625 1.87109375 C-3.56604004 1.48880615 -2.78051758 1.10651855 -1.97119141 0.71264648 C-1.32069824 0.47747314 -0.67020508 0.2422998 0 0 Z " fill="#92D662" transform="translate(610,305)"/>
<path d="M0 0 C0 3 0 3 -1.28515625 4.62573242 C-2.16494141 5.4819519 -2.16494141 5.4819519 -3.0625 6.35546875 C-3.69414063 6.97744141 -4.32578125 7.59941406 -4.9765625 8.24023438 C-5.64429688 8.88283203 -6.31203125 9.52542969 -7 10.1875 C-8.00160156 11.16879883 -8.00160156 11.16879883 -9.0234375 12.16992188 C-10.67578441 13.78686135 -12.33471601 15.39640491 -14 17 C-14.66 16.67 -15.32 16.34 -16 16 C-11.03093773 10.1719243 -5.90436923 4.8836671 0 0 Z " fill="#E3F5DD" transform="translate(587,366)"/>
<path d="M0 0 C0.66 0.33 1.32 0.66 2 1 C-11.53688525 10 -11.53688525 10 -18 10 C-16.69807157 7.39614315 -15.59542175 7.22828827 -12.9375 6.125 C-9.73062213 4.76745585 -6.6401313 3.31650265 -3.5625 1.6875 C-2.386875 1.130625 -1.21125 0.57375 0 0 Z " fill="#3845A5" transform="translate(696,470)"/>
<path d="M0 0 C0.66 0 1.32 0 2 0 C-0.94191272 6.84445 -7.8536393 11.15852456 -14 15 C-12.46000416 11.16751036 -10.08835992 9.05935935 -7 6.375 C-6.113125 5.59898437 -5.22625 4.82296875 -4.3125 4.0234375 C-3.1678125 3.02183594 -3.1678125 3.02183594 -2 2 C-1.34 1.34 -0.68 0.68 0 0 Z " fill="#6DBE51" transform="translate(561,355)"/>
<path d="M0 0 C2.33605534 0.318553 4.66772528 0.65519527 7 1 C8.02351562 1.14566406 9.04703125 1.29132813 10.1015625 1.44140625 C11.18179688 1.60511719 12.26203125 1.76882813 13.375 1.9375 C14.41398438 2.09089844 15.45296875 2.24429687 16.5234375 2.40234375 C17.74933594 2.69818359 17.74933594 2.69818359 19 3 C19.33 3.66 19.66 4.32 20 5 C12.40429561 5.58179863 6.85884959 4.26889853 0 1 C0 0.67 0 0.34 0 0 Z " fill="#274291" transform="translate(533,495)"/>
<path d="M0 0 C12.66970387 -0.18451025 12.66970387 -0.18451025 18 1 C18 1.33 18 1.66 18 2 C9.585 2.495 9.585 2.495 1 3 C0.67 2.01 0.34 1.02 0 0 Z " fill="#E8BE96" transform="translate(947,660)"/>
<path d="M0 0 C7.26 0.33 14.52 0.66 22 1 C20.68 2.32 19.36 3.64 18 5 C18 4.01 18 3.02 18 2 C12.39 2 6.78 2 1 2 C0.67 1.34 0.34 0.68 0 0 Z " fill="#A9BEB9" transform="translate(765,400)"/>
<path d="M0 0 C2.97 0 5.94 0 9 0 C8.67 0.99 8.34 1.98 8 3 C3.05 3 -1.9 3 -7 3 C-7 2.67 -7 2.34 -7 2 C-3.535 1.505 -3.535 1.505 0 1 C0 0.67 0 0.34 0 0 Z " fill="#F4EDE6" transform="translate(979,660)"/>
<path d="M0 0 C1.2065625 0.0309375 1.2065625 0.0309375 2.4375 0.0625 C-0.4387349 2.3848428 -3.20030422 3.92815842 -6.625 5.3125 C-7.48222656 5.66828125 -8.33945312 6.0240625 -9.22265625 6.390625 C-11.5625 7.0625 -11.5625 7.0625 -14.5625 6.0625 C-13.78003906 5.71316406 -12.99757813 5.36382812 -12.19140625 5.00390625 C-11.17949219 4.54886719 -10.16757812 4.09382813 -9.125 3.625 C-8.11566406 3.17253906 -7.10632813 2.72007812 -6.06640625 2.25390625 C-1.40134019 0.03417903 -1.40134019 0.03417903 0 0 Z " fill="#4D4FA2" transform="translate(675.5625,479.9375)"/>
<path d="M0 0 C0.99 0 1.98 0 3 0 C3.33872513 1.41538717 3.67074624 2.83237963 4 4.25 C4.185625 5.03890625 4.37125 5.8278125 4.5625 6.640625 C5 9 5 9 5 13 C3.68 13.33 2.36 13.66 1 14 C1.33 9.71 1.66 5.42 2 1 C1.34 0.67 0.68 0.34 0 0 Z " fill="#4EA9AC" transform="translate(759,394)"/>
<path d="M0 0 C-0.639375 0.28875 -1.27875 0.5775 -1.9375 0.875 C-4.15206079 1.82823451 -4.15206079 1.82823451 -5 4 C-7.64 4 -10.28 4 -13 4 C-13 3.34 -13 2.68 -13 2 C-8.46298506 0.54815522 -4.81938524 -0.23509196 0 0 Z " fill="#3E4C9B" transform="translate(659,460)"/>
<path d="M0 0 C-0.33 1.65 -0.66 3.3 -1 5 C-0.34 5 0.32 5 1 5 C1 5.66 1 6.32 1 7 C1.66 7 2.32 7 3 7 C2.67 7.66 2.34 8.32 2 9 C1.01 9 0.02 9 -1 9 C-1.99 6.36 -2.98 3.72 -4 1 C-2 0 -2 0 0 0 Z " fill="#D0DBCD" transform="translate(768,390)"/>
<path d="M0 0 C-10.37357631 4.59225513 -10.37357631 4.59225513 -16 4 C-13.41588269 2.27725513 -11.45097344 1.31104478 -8.5625 0.3125 C-7.41974609 -0.09548828 -7.41974609 -0.09548828 -6.25390625 -0.51171875 C-3.78170279 -1.04729142 -2.37016716 -0.80445309 0 0 Z " fill="#53B571" transform="translate(702,283)"/>
<path d="M0 0 C0 0.66 0 1.32 0 2 C-4.95 4.475 -4.95 4.475 -10 7 C-10.99 6.34 -11.98 5.68 -13 5 C-11.21046815 4.16209211 -9.41830305 3.32980604 -7.625 2.5 C-6.62726562 2.0359375 -5.62953125 1.571875 -4.6015625 1.09375 C-2 0 -2 0 0 0 Z " fill="#DEDAB8" transform="translate(696,473)"/>
<path d="M0 0 C0.95465783 2.16967689 1.14401212 3.56328793 0.3984375 5.82421875 C-0.35870385 7.5684743 -1.17609198 9.28627131 -2 11 C-2.33 11 -2.66 11 -3 11 C-3.36923077 3.49230769 -3.36923077 3.49230769 -1.5 1 C-1.005 0.67 -0.51 0.34 0 0 Z " fill="#D0E9E0" transform="translate(521,401)"/>
<path d="M0 0 C0.66 0 1.32 0 2 0 C0.53181332 3.10742423 -1.20025 5.90471739 -3.125 8.75 C-3.93324219 9.94882812 -3.93324219 9.94882812 -4.7578125 11.171875 C-5.16773438 11.77515625 -5.57765625 12.3784375 -6 13 C-6.66 12.67 -7.32 12.34 -8 12 C-6.71656721 9.99426318 -5.4239631 7.99563881 -4.125 6 C-3.76019531 5.42765625 -3.39539063 4.8553125 -3.01953125 4.265625 C-2.06525233 2.80818084 -1.03722413 1.39962775 0 0 Z " fill="#35A06F" transform="translate(510,378)"/>
<path d="M0 0 C0 0.66 0 1.32 0 2 C-6.625 5.125 -6.625 5.125 -10 4 C-6.58908673 0.88145073 -4.68377325 -0.53528837 0 0 Z " fill="#FDD81F" transform="translate(695,320)"/>
<path d="M0 0 C-6.03076923 4.06153846 -6.03076923 4.06153846 -10.9375 3.75 C-11.948125 3.5025 -12.95875 3.255 -14 3 C-11.20387283 1.13591522 -9.62830652 0.51163882 -6.4375 -0.1875 C-5.65246094 -0.36667969 -4.86742187 -0.54585938 -4.05859375 -0.73046875 C-2 -1 -2 -1 0 0 Z " fill="#FDE231" transform="translate(704,317)"/>
<path d="M0 0 C3.43198603 1.23932829 6.30325632 2.50301511 9 5 C9 5.99 9 6.98 9 8 C8.01 8 7.02 8 6 8 C4.39453125 6.25 4.39453125 6.25 2.8125 4 C2.28269531 3.2575 1.75289062 2.515 1.20703125 1.75 C0.80871094 1.1725 0.41039062 0.595 0 0 Z " fill="#FB8635" transform="translate(999,659)"/>
<path d="M0 0 C-0.33 0.99 -0.66 1.98 -1 3 C-3.5625 4.1875 -3.5625 4.1875 -6 5 C-6.66 4.01 -7.32 3.02 -8 2 C-4.91190305 0.23537317 -3.76687864 0 0 0 Z " fill="#76C655" transform="translate(593,315)"/>
<path d="M0 0 C-1.26239712 0.86658615 -2.53527501 1.71792059 -3.8125 2.5625 C-4.87404297 3.27599609 -4.87404297 3.27599609 -5.95703125 4.00390625 C-8 5 -8 5 -11 4 C-9.73760288 3.13341385 -8.46472499 2.28207941 -7.1875 1.4375 C-6.47980469 0.96183594 -5.77210938 0.48617187 -5.04296875 -0.00390625 C-3 -1 -3 -1 0 0 Z " fill="#EAAF30" transform="translate(656,523)"/>
<path d="M0 0 C4.51617599 -0.07654536 8.59085217 -0.10228696 13 1 C9.87348943 2.85274701 7.62826895 3.45353362 4 3 C1.6875 1.5 1.6875 1.5 0 0 Z " fill="#ECB077" transform="translate(939,660)"/>
<path d="M0 0 C-8.261959 3.62870159 -8.261959 3.62870159 -13 2 C-8.4983139 -0.50093672 -4.98364524 -1.40428987 0 0 Z " fill="#34488E" transform="translate(623,469)"/>
<path d="M0 0 C0.66 0.33 1.32 0.66 2 1 C-1.90456127 4.53269829 -4.80177328 6.63855967 -10 8 C-6.91367389 4.7373124 -4.06516496 1.97764782 0 0 Z " fill="#95CF4D" transform="translate(595,330)"/>
<path d="M0 0 C0 0.66 0 1.32 0 2 C-1.98 2.33 -3.96 2.66 -6 3 C-6 3.66 -6 4.32 -6 5 C-6.66 5 -7.32 5 -8 5 C-8 3.68 -8 2.36 -8 1 C-2.25 0 -2.25 0 0 0 Z " fill="#7E9F97" transform="translate(773,402)"/>
<path d="M0 0 C0.99 0.33 1.98 0.66 3 1 C1.47793991 3.62901288 0.15634036 5.84365964 -2 8 C-2 5.69 -2 3.38 -2 1 C-1.34 0.67 -0.68 0.34 0 0 Z " fill="#FA7416" transform="translate(623,624)"/>
<path d="M0 0 C0.33 0 0.66 0 1 0 C0.67 2.97 0.34 5.94 0 9 C-0.66 9 -1.32 9 -2 9 C-1.125 1.125 -1.125 1.125 0 0 Z " fill="#2554AB" transform="translate(803,475)"/>
<path d="M0 0 C0.66 0.33 1.32 0.66 2 1 C2 3.31 2 5.62 2 8 C1.01 7.67 0.02 7.34 -1 7 C-1.33 5.02 -1.66 3.04 -2 1 C-1.34 0.67 -0.68 0.34 0 0 Z " fill="#94C6BC" transform="translate(763,392)"/>
<path d="M0 0 C0.66 0.99 1.32 1.98 2 3 C0.625 6.6875 0.625 6.6875 -1 10 C-1.66 10 -2.32 10 -3 10 C-2.01 6.7 -1.02 3.4 0 0 Z " fill="#794F98" transform="translate(851,356)"/>
<path d="M0 0 C0.66 0.66 1.32 1.32 2 2 C1.625 5.125 1.625 5.125 1 8 C0.34 8 -0.32 8 -1 8 C-1.125 2.25 -1.125 2.25 0 0 Z " fill="#F1F1F3" transform="translate(800,475)"/>
</svg>
